<?xml version="1.0" encoding="UTF-8"?>
<svg id="_图层_1" data-name="图层_1" xmlns="http://www.w3.org/2000/svg" version="1.1" viewBox="0 0 1400 1050">
  <!-- Generator: Adobe Illustrator 29.3.1, SVG Export Plug-In . SVG Version: 2.1.0 Build 151)  -->
  <defs>
    <style>
      .st0 {
        fill: #b82218;
      }

      .st1 {
        fill: #010000;
      }

      .st2 {
        fill: #af2017;
      }
    </style>
  </defs>
  <g>
    <path d="M1117.12,450.62c-.41-1.7-1.22-3.11-1.59-3.62-.67-.78-.96-1.07-3.14-1.07h-2.37v17.38c0,3.11.37,3.33,3.66,3.59v1.37h-12.28v-1.37c3.14-.26,3.48-.48,3.48-3.59v-17.38h-2.26c-2.07,0-2.66.33-3.37,1.22-.52.7-1.04,2.03-1.52,3.51h-1.41c.26-2.7.52-5.58.59-7.36h1.11c.55.85,1,.92,2.11.92h14.79c1,0,1.52-.22,2.15-.92h1.07c.04,1.55.18,4.81.37,7.21l-1.41.11Z"/>
    <path d="M1138.53,468.25v-1.37c2.33-.33,2.33-.74,1.81-2.33-.37-1.11-.96-2.77-1.52-4.25h-7.21c-.41,1.15-.92,2.55-1.29,3.7-.78,2.33.11,2.63,3.03,2.88v1.37h-9.13v-1.37c2.33-.3,2.92-.63,4.18-3.73l7.69-19.12,1.77-.33c2.37,6.43,4.88,13.02,7.28,19.19,1.37,3.44,1.7,3.7,4.1,3.99v1.37h-10.72ZM1135.28,450.58c-1.07,2.66-2.11,5.14-3.03,7.84h5.88l-2.85-7.84Z"/>
    <path d="M1157.98,468.25v-1.37c2.81-.26,3.14-.48,3.14-3.59v-14.09c0-3.11-.37-3.4-3.14-3.62v-1.37h11.43v1.37c-2.77.26-3.14.52-3.14,3.62v14.09c0,3.07.33,3.29,3.14,3.59v1.37h-11.43Z"/>
    <path d="M1123.41,488.73c-2.88.3-3.14.52-3.14,3.59v14.16c0,3.07.3,3.29,3.14,3.55v1.37h-11.43v-1.37c2.92-.37,3.14-.48,3.14-3.55v-6.95h-9.98v6.95c0,3.07.33,3.25,3.11,3.55v1.37h-11.39v-1.37c2.74-.3,3.14-.48,3.14-3.55v-14.16c0-3.07-.33-3.37-3.14-3.59v-1.37h11.39v1.37c-2.81.26-3.11.52-3.11,3.59v5.29h9.98v-5.29c0-3.07-.37-3.29-3.14-3.59v-1.37h11.43v1.37Z"/>
    <path d="M1146.22,511.4v-1.37c2.33-.33,2.33-.74,1.81-2.33-.37-1.11-.96-2.77-1.52-4.25h-7.21c-.41,1.15-.92,2.55-1.29,3.7-.78,2.33.11,2.63,3.03,2.88v1.37h-9.13v-1.37c2.33-.3,2.92-.63,4.18-3.73l7.69-19.12,1.77-.33c2.37,6.43,4.88,13.02,7.28,19.19,1.37,3.44,1.7,3.7,4.1,3.99v1.37h-10.72ZM1142.97,493.72c-1.07,2.66-2.11,5.14-3.03,7.84h5.88l-2.85-7.84Z"/>
    <path d="M1191.44,488.73c-2.26.3-2.96.78-3.07,2.44-.11,1.44-.22,2.7-.22,5.92v14.72h-2.07l-15.42-18.49v8.36c0,3.22.07,4.66.18,5.73.15,1.63.92,2.48,3.66,2.63v1.37h-9.17v-1.37c2.11-.18,3.03-.74,3.25-2.48.15-1.33.22-2.66.22-5.88v-8.76c0-1.22-.07-2.03-.78-2.99-.67-.92-1.55-1.04-3.11-1.18v-1.37h7.21l14.09,16.38v-6.66c0-3.22-.04-4.44-.15-5.81-.11-1.59-.7-2.37-3.77-2.55v-1.37h9.13v1.37Z"/>
    <path d="M1226.09,501.26c-2.11.37-2.37.52-2.37,3.03v2.85c0,1.33.04,2.59.22,3.59-1.89.33-5.95,1.22-8.95,1.22-8.69,0-13.68-5.29-13.68-12.61,0-8.32,6.77-12.5,14.64-12.5,2.99,0,6.25.74,7.47.85.07,1.63.37,4.44.63,6.47l-1.44.26c-.89-3.14-2.26-4.73-4.55-5.51-.85-.3-2.22-.44-3.14-.44-4.47,0-7.84,3.88-7.84,10.24s2.29,11.65,8.36,11.65c.74,0,1.7-.11,2.37-.52.55-.33.85-.96.85-2.11v-3.25c0-2.59-.52-2.85-3.62-3.22v-1.37h11.06v1.37Z"/>
    <path d="M1107.69,554.54v-1.37c2.51-.33,2.4-.92,1.77-2.11-.37-.63-1.15-1.92-3.81-6.51-1.7,2.63-3.33,5.03-3.99,6.32-.85,1.52-.67,1.92,1.92,2.29v1.37h-9.21v-1.37c2.07-.18,3.4-.78,4.47-2.07,1.33-1.63,3.7-4.88,5.81-8.06-1.74-2.92-3.29-5.51-5.18-8.54-1-1.66-1.81-2.33-4.59-2.63v-1.37h11.54v1.37c-2.22.26-2.33.67-1.81,1.74.59,1.15,1.77,3.14,3.29,5.58,1.11-1.52,2.48-3.7,3.37-5.25.7-1.29.41-1.66-1.89-2.07v-1.37h8.95v1.37c-2.4.3-3.51.67-4.92,2.44-1.26,1.66-2.7,3.73-4.51,6.29,2.15,3.4,3.85,6.25,6.03,9.54,1.48,2.4,2.26,2.77,4.81,3.03v1.37h-12.05Z"/>
    <path d="M1152.8,531.87c-2.37.22-3,.92-3.14,2.26-.11,1.11-.18,2.37-.18,4.96v4.84c0,3.18-.52,6.4-2.63,8.62-1.7,1.77-4.33,2.55-6.95,2.55-2.44,0-4.88-.52-6.62-1.92-2.15-1.63-3.18-3.88-3.18-8.02v-9.36c0-3.4-.33-3.66-3.14-3.92v-1.37h11.43v1.37c-2.77.26-3.11.52-3.11,3.92v9.84c0,4.14,2.03,6.88,5.99,6.88,4.4,0,6.32-3.25,6.32-8.8v-4.62c0-2.55-.11-3.88-.18-4.99-.15-1.7-1.18-2.07-3.77-2.22v-1.37h9.17v1.37Z"/>
  </g>
  <path d="M297.2,466.43l-.3-78.28,22.48,14.81c.45,1.7-1.3,1.26-2.43,2.17-1.5,1.2-3.38,2.97-3.7,4.94-.08,18.81.21,37.63-.65,56.36h82.28c2.76-2.61,5.64-5,8.34-7.69,1.32-1.31,4.71-6.51,6.45-6.51,2.12,0,13.55,14.48,16.32,16.37.49.83-1.35,1.52-1.53,1.52h-112.48c-1.25,6.36.51,11.15,2.3,17.11,17.33,57.58,63.95,104.59,117.04,130.71,12.61,6.2,26.05,10.12,38.44,15.83.45.21,2.31.53,1.22,1.52-.18.16-3.6-1.03-4.69-1.16-10.59-1.21-25.83-2.34-35.79,1.66-2.73,1.1-5.18,2.91-7.27,4.94-54.4-37.71-99.19-91.17-112.17-157.68-3.19,18.56-7.52,36.73-14.99,54.04-22.39,51.86-69.58,88.6-122.13,106.82-.29-1.38.66-1.39,1.51-1.87,8.46-4.76,17.26-8.74,25.55-13.89,55.68-34.62,92.49-91.58,95.58-158.03-33.36.59-66.82-.77-100.18-.03-2.99.07-7.15,1.66-9.87.07l-3.35-3.73h114.02Z"/>
  <path d="M1046.63,433.78l-.6,1.54-177.23.27c-2.07.12-5.29.95-5.24,3.39-.9,75.07,8.44,159.39-47.4,218.22-.56.59-3.66,4.03-4.33,3.37,22.93-31.79,33.14-71.21,36.36-110.01,2.87-34.6,2.66-77.89,1.26-112.8-.19-4.87-1.49-10.12-1.25-15.07.72-.8,16.77,9.37,19.4,9.26l150.69-.33c5.19-3.43,8.09-9.12,13.18-12.58,5.56,4.34,9.12,11.28,15.18,14.76Z"/>
  <path d="M960.96,516.36h70.57c.79,0,6.26-8.27,7.93-7.97,4.43,4.33,9.69,8.01,14.17,12.23.52.49.56.42.39,1.27-14.97,6.71-27.56,18.38-41.1,27.63-2.06,1.41-4.51,3.54-6.97,3.81,9.79-10.11,18.43-21.32,25.88-33.27h-65.94v102.62c0,9.88-9.27,22.35-16.63,28.36-.56.46-3.25,2.66-3.7,2.15,1.8-12.55-11.03-20.81-20.72-25.81-5.4-2.78-12.22-5.62-18.11-6.86-.36-1.73.8-1.34,2.09-1.17,7.83,1.03,16.4,3.91,24.28,5.3,13.73,2.43,18.83,1.73,19.87-13.66l-.02-90.93c-22.48.43-45.04-.56-67.51-.02-4.65.11-9.11,2.72-11.38-3.67h83.2c-4.36-14.18-15.87-23.06-26.96-31.87-.49-.39-1.75-.44-.46-1.42,14.7,5.64,30.55,10.85,41.91,22.2l-10.8,11.09Z"/>
  <path d="M723.38,483.69l14.09-13.51c5.52,5.27,11.15,10.8,15.8,16.59-.62-.19-1.31.62-1.54.62h-57.62c.98,4.45.76,9.84.65,14.51-.59,23.29-1.03,46.91-1.29,70.2-.18,15.85,1.36,34.44-.05,49.87-.9,9.86-6.25,18.82-13.47,25.36-.82.74-8.09,6.46-8.63,5.84,1.68-12.57-11.7-19.98-21.35-24.56-6.91-3.28-14.1-5.15-21.05-7.94-.93-.37-1.67.36-1.35-1.39,12.36,1.19,26.23,6.33,38.48,6.8,9.74.38,13.07-3.9,13.92-13.26l.6-125.44c-24.12.46-48.33-.59-72.44-.02-2.42.06-5.1,1.59-7.41.06l-3.35-3.73h126.03Z"/>
  <path d="M588.09,459.67c.24.29.15.86-.37,1.26-1.76,1.34-4.43,1.65-6.41,3.95-4.8,5.6-8.14,13.72-13.53,19.13l-.02,126.94c-1.14,12.91-4.52,25.39-9.57,37.27l-5.21,10.5,1.22-159.62-10.46,10.17c-11.03,9.82-33.63,27.22-47.03,32.47-.6.23-1.88,1-2.28.19,23.34-15.93,44.29-36.63,60.03-60.15,7.17-10.71,14.02-22.64,17.62-35.07l16.01,12.95Z"/>
  <path d="M1020.74,468.9c-19.76,6.67-36.5,20.98-56.39,27.74l20.65-17.56,9.85-10.79c-29.45.53-59.01-.72-88.47-.03-2.57.06-4.8,1.56-7.4.06-.29-.17-3.34-3.18-3.34-3.42-.04-1.89,5.89-.32,7.05-.28,30.95,1.03,62.1-.81,93.07-.04,2.63-.5,6.89-7.61,9.88-8.64.79,0,9.46,7.16,10.79,8.33.79.69,4.85,4.02,4.3,4.63Z"/>
  <path d="M505.52,472.59c-.81-.75,1.03-1.66,1.43-1.95,14.12-10.33,25.63-19.78,36.76-33.5,9.95-12.27,19.53-27,24.06-42.2l15.39,14.48c-6.87,2.74-9.13,8.31-13.56,13.54-17.41,20.53-36.17,35.24-59.97,47.89-.71.38-3.71,2.11-4.11,1.74Z"/>
  <path d="M339.11,605.71c-6.93,3.1-11.75,12.04-17.55,16.04-.52.36-.61.86-1.55.61-2.12-13.47-8.15-26-15.15-37.54l-11.96-17.31c.42-.42,9.01,5.56,10.05,6.27,10.18,7.01,25.13,18.07,33.1,27.3.57.66,3.48,4.04,3.06,4.63Z"/>
  <path d="M710.43,418.36l12.33-12.93,15.1,15.71-3.39.92c-37.16.64-74.42-.83-111.58-.03-2.48.05-6.63,1.6-8.64.08l-2.73-3.74h98.92Z"/>
  <path d="M950.37,420.69c-2.18,1.25-1.71-1.56-2.32-3.28-2.35-6.67-5.72-12.9-9.5-18.85l-6.55-9.16c11.77,1.83,23.76,6.22,32.03,15.1-2.94,2.99-5.88,6.08-8.6,9.26-.95,1.11-4.69,6.72-5.06,6.93Z"/>
  <g>
    <path class="st1" d="M1099.05,644.57c.16.18.2.21.35.42-.04-.04-.42.06-.56-.02-.03-.02-.33-.43-.27-.56.27-.53.4.09.47.16Z"/>
    <path class="st1" d="M1129.2,644.69c.13,0,.26,0,.38,0-.15.46-.35.72,0,1.15.05.05.35-.42.41-.45.07-.05.15-.02.16-.03,0,.11,0,.17-.05.28-.16.32-1.91,1.94-2.21,1.93-.14,0-.54-.7-.58-.87-.11-.45.84-.86,1.12-1.1.12-.11.74-.83.76-.92Z"/>
    <path class="st1" d="M1130.16,645.37c.03-.28-.03-.5-.1-.77,1.14.25.71.37.1.77Z"/>
    <path class="st1" d="M1114.06,652.58c-.14,0-.28.1-.33.1.03.03.07.06.09.09.53.61.83-.08,1.54.19v-.38c-.43.14-.83,0-1.3,0ZM1108.41,652.67h-.04s-.06-.01-.09-.02h0s.01.02.02.03c.02.02.04.04.07.06.02.01.04.02.06.02s.05.01.07.01.04,0,.07,0c.01,0,.02,0,.03-.02.03-.02.03-.08.03-.12-.07.03-.15.04-.23.04ZM1106.61,652.19c.3.1.57.46.86-.1-.28-.01-.76-.22-.86.1ZM1099.4,585.77c-.14-.07-.26.06-.19.09.14.07.25-.06.19-.09ZM1098.21,612.26v.12s0,.04.01.06c0,0,0,.02.01.02l-.02-.21ZM1097.57,586.2c-.01-.08.06-.8-.18-.53-.04.04-.27.82-.29.96.14-.06.59-.11.67,0,.04-.02.07-.09.09-.1-.12-.1-.25-.15-.29-.33Z"/>
    <path class="st1" d="M1104.88,578.94l-1.86.86c-.06.44-.2.23-.43.35-.31.17-.59.53-.75.62s-.47.06-.57.18c-.04.05.1.66-.34,1.1-.28.29-.7.38-.91.53-.3.23-1.47,1.32-1.59,1.59s-.16.64-.28.92c.58.21.64-.47.93-.56.31-.1.86.11.89.08.02-.02.07-.42.21-.61.13-.18.75-.51.18-.64-.04-.13.13-.09.23-.2.23-.26.92-1.2,1.14-1.32.13-.07.36.02.45-.03.06-.04.06-.32.12-.36.08-.06.35.02.5-.03.12-.04.13-.2.23-.28s.3-.08.37-.19c.06-.09-.1-.49.04-.67.89.26.52-.15.78-.62.19-.34.7-.26.66-.73Z"/>
    <path class="st1" d="M1121.9,579.42s-.74-.22-.77-.19c-.02.02-.05.23.07.29.1.05,1.01.19.7-.09Z"/>
    <path class="st1" d="M1128.62,586.34c-.23-.31-.21.62-.19.72.02.17.11.55.29.62l-.1-1.35Z"/>
    <path class="st1" d="M1128.91,587.79h-.19s0,.29,0,.29c.14-.03.22-.16.19-.29Z"/>
    <path class="st1" d="M1097.39,589.47s0-.1,0-.15c-.68.25-.38-.05-.62-.29-.07-.07-.21-.07-.3-.14-.04-.02-.04-.28-.22-.15-.01,0,.02.14-.07.18-.34.18-.47-.04-.5.64,0,.17.1.32.09.45,0,.04-.51.52-.55.71-.3,1.22-.47,3.4-.51,4.68-.02.94.03,1.89,0,2.83.23.06.2-.09.26-.26l.12-1.18v3.37c.24.02.17.02.19-.14.1-.73,0-1.47.09-2.12.02-.18.18-.13.2-.2.06-.28-.04-.69,0-.99l.29.29-.1-.48c.55.12.2-.55.22-.84.07-1.22.52-2.61.83-3.76.14-.51.59-2.05.59-2.47ZM1095.75,592.3c-.25.27-.22-.63-.19-.67.06-.06.36.03.38.15,0,.05-.17.51-.19.52ZM1096.33,590.38c-.18-.17.71-.63.76-.57.01.48-.25.31-.4.39-.08.04-.2.35-.36.18Z"/>
    <path class="st1" d="M1129.78,590s-.15-1.02-.38-1.06c-.03.22.05.5,0,.71-.01.06-.62.3.38.35Z"/>
    <path class="st1" d="M1131.99,598.17s-.36-.35-.48-.14c.15.38.05.78.1,1.15.18,1.31.48,2.68.48,4.05,0,2.53.19,4.73.57,7.21.05.36-.03.74.03,1.13.01.08.04.29.17.26-.06-.37.48-.06.63-.28.07-.1.04-.38.12-.56.1-.23.86-.75.31-.65-.04-.26.11-.51.1-.77,0-.36-.07-1.38-.15-1.69-.14-.58-.64-.82-.73-1.68-.04-.39.19-1.15-.29-1.01-.12-.38.3-.25.29-.58-.57.05-.34-.65-.49-1.08-.03-.09-.2-.07-.19-.12.01-.07.17-.2.19-.4.16-1.37-.02-2.66-.29-4.02-.07-.33-.37-.56-.19-1.02l-.19.19Z"/>
    <path class="st1" d="M1095.36,618.16s-.13-.03-.18.01c-.1.1-.27,1,.18.76-.03-.23.05-.56,0-.77.05-.02.13.01.19,0l-.19-.19v-.09c.51-.05,0-.22,0-.26-.14-.52.16-.48.22-.63.18-.44-.04-.66-.03-.99.08-1.74.47-3.75.3-5.48-.03-.25-.23-.38-.21-.67.01-.21.17-.34.21-.57.1-.72-.11-1.46-.19-2.12-.02-.18-.05-1.24-.1-1.29-.31-.12-.37.26-.38.54-.01.31.12.56.1.85-.04.63-.24,1.58-.29,2.21-.02.3.22.86.17,1.43-.11,1.31.03,2.42-.08,3.67-.06.77.2,1.67.16,2.42,0,.15-.17.25-.17.46-.01.34.26.55.3.73Z"/>
    <path class="st1" d="M1134.03,612.76s-.03-.26-.15-.37c-.42-.39-.36.15-.29.48.24,1.08.15,2.68.02,3.89-.06.57-.43,1.43-.17,1.92.08.16.29.29.41.45.09.13-.02.42.25.22.49-.38.71-1.22.29-1.72.3-.07.21-.48.19-.77-.02-.37-.29-1.2-.29-1.35,0-.17.21-.24.26-.4.04-.13-.03-1.92-.07-2.1-.07-.36-.34-.16-.46-.26Z"/>
    <path class="st1" d="M1095.36,620.28c-.32-.07-.14.22-.21.41-.05.14-.23.21-.26.33-.05.18.18.64.08.89.46,0,.2-.39.23-.61.04-.34.19-.67.16-1.02Z"/>
    <path class="st1" d="M1134.78,622.87c-.44,0-.17.42-.3.7s-.41.17-.37.46c.84.06.68-.52.67-1.15Z"/>
    <path class="st1" d="M1135.06,626.14c-.56.05-.24.7-.28.9,0,.03-.39.44-.49.45.2.44.58.3.87.03l-.1-1.38Z"/>
    <path class="st1" d="M1095.56,626.33s-.44,0-.48.15c-.03.13.26.51.19.71-.79-.13-.17.5-.19.81,0,.05-.18.04-.2.12-.11.41.32.7.29,1.23-.01.31-.25.49-.28.69-.03.25.2.87.17,1.23-.02.26-.18.5-.18.68,0,.16.16.31.18.48.04.41.01,1.63.11,1.91.07.2.52.07.56.7.02.34-.16.49-.19.66,0,.02.38.08.19.24-.05.04-.34-.14-.38-.1-.19.18.39.21.19.38-.02.02-.48-.05-.29.19.01.01.17,0,.24.1.07.11.05.29.14.44.2.32.59.35.59-.1,0-.3-.15-1.5-.22-1.81s-.23-.76-.23-1.08c0-.07.16-.17.16-.29,0-.15-.55-.98-.58-1.24-.02-.15-.03-.95,0-1.05.03-.12.46.01.5-.49-.15-.64-.1-1.64-.29-2.22-.07-.2-.32-.16-.2-.65,0-.03.56-.24-.1-.25-.07-.25.26-.22.29-.36.02-.09.04-1.05,0-1.09Z"/>
    <path class="st1" d="M1094.68,626.92c-.25-.15-.35.09-.29.33l.39.43c.02-.14-.02-.71-.1-.76Z"/>
    <path class="st1" d="M1133.98,627.61c-.05-.05-.35-.11-.45-.22.18.59,0,1.15,0,1.68-.01,1.83.21,3.77.19,5.57,0,.48-.29,1.83-.39,2.4-.03.15-.19.28-.18.38.02.14.6.48.38.93.21-.03.32-.51.41-.56.1-.05.27.02.34-.04s.65-1.4.68-1.58.27-1.28.27-1.36c0-.21-.17-.36-.17-.65,0-.3.18-.52.19-.77.05-1.26-.13-2.51-.16-3.75,0-.21.29-1.79-.16-1.68-.16.04-.22.56-.24.58-.02.02-.54-.09-.56-.11-.09-.08,0-.69-.14-.83Z"/>
    <path class="st1" d="M1094.69,635.95c-.43-.03-.09.82-.1,1.06.89-.12.01-.62.1-1.06Z"/>
    <path class="st1" d="M1094.88,637.1c-.36-.27-.38.96.1,1.06-.03-.15-.03-1-.1-1.06Z"/>
    <path class="st1" d="M1098.15,637.39c-.58-.11-.35.22-.38.67.41.12.3-.34.38-.67Z"/>
    <path class="st1" d="M1097.85,645.03c.02-.2.19-.15.2-.19.08-.31-.35-.29-.55-.46-.04-.04,0-.19-.05-.24-.05-.05-.2,0-.24-.04-.04-.04-.04-.35-.13-.51-.1-.17-.36-.25-.38-.3-.07-.29.2-.23.19-.29-.01-.09-.39-.44-.28-.53.57.14.6-.34.86-.72-.11-.76-.39-1.51-.48-2.26-.05-.06-.54.18-.63.18-.04,0-.04-.14-.07-.15-.12-.05-.23-.04-.36-.03-.1.25.19.17.2.24.05.3-.22.41-.46.31-.02-.01-.09-.2-.37-.25-.31-.06,0,.25.03.36.64,2.05.95,2.71,2.03,4.51.09.15.43,1.15.68.89.16-.15-.22-.29-.2-.52ZM1096.13,640.75h-.38c-.03-.26-.04-.67.28-.47.04.02.14.44.1.47Z"/>
    <path class="st1" d="M1132.88,642.13c.11-.16.69-.67.79-.9.05-.11-.04-.26-.02-.32.08-.17.56-.99.45-1.12-.72.03-.5.75-.59.85-.03.03-.22.02-.33.1-.98.76-.92,1.53-1.42,2.29-.04.06-.2.06-.25.18-.06.17,0,.42-.01.61.29.32,1.26-1.54,1.37-1.7Z"/>
    <path class="st1" d="M1115.93,651.33c-.59.16-1.27-.05-1.83.24.09.12.21.17.35.21.09.02,1.04.05,1.12.04.03,0,.42-.42.36-.48Z"/>
    <path class="st0" d="M1099.04,644.56c-.07-.07-.2-.69-.47-.16-.06.13.23.54.27.55.14.09.51-.02.55.02-.16-.21-.19-.23-.36-.42Z"/>
    <path class="st0" d="M1107.78,650.6c-.47.28-.51-.04-.85-.12-.22-.05-.52.04-.7-.07-.14-.08-.2-.42-.31-.5-.2-.15-.6-.07-.83-.17-.15-.07-.35-.39-.55-.51-.39-.24-.71-.08-.8-.54-.54-.32-1.78-.6-2.24-.91-.06-.04-.82-.97-.93-1.11-.03-.04-.06-.07-.08-.1-.07-.1-.15-.21-.23-.32-.1-.15-.2-.3-.3-.45-.04-.06-.07-.12-.12-.17-.02-.03-.04-.06-.06-.09-.02-.03-.04-.06-.06-.09-.04-.06-.07-.11-.11-.16-.02-.03-.04-.06-.05-.08-.02-.02-.04-.05-.06-.07s-.04-.05-.05-.07c-.02-.02-.03-.04-.05-.06,0,0,0,.01,0,.02v.04s0,.01,0,.02v.02s0,.01,0,.02v.06h0v.04s0,.02,0,.03v.07s0,.04,0,.07c0,.03,0,.07.01.1,0,.04,0,.07,0,.1,0,.02,0,.03,0,.05,0,.02,0,.04,0,.07,0,0,0,.01,0,.02h0s0,.03,0,.04,0,.01,0,.02c.04.12.23.01.3.11.09.13.04.41.1.55.06.14.25.13.27.23.04.15-.06.36.04.51.07.1.35.1.44.23.1.12.06.31.12.41.06.07.24.12.3.32.06.21.2,1.34.36,1.43.15.09.46-.17.37.3.61-.18.25.04.45.2.25.2,1.16.41,1.49.57,1.04.53,1.57,1.08,2.87,1.54.1-.31.59-.11.86-.1h.04c-.03-.09-.04-.18-.04-.28.1-.41.2-.81.3-1.22ZM1104.49,650.23c-.33-.16-.44.13-.38-.54.42-.09.43.17.62.35.18.17.19.31.53.23-.06.57-.5.09-.78-.04ZM1107.57,650.17l.23.31c.02-.1.05-.21.07-.31h-.3ZM1108.75,652.58s.07,0,.09-.01c.06-.04.1-.11.16-.17-.08.07-.17.14-.25.18ZM1109.66,628.3c-.19-.45-.61-.68-1.25-.68h-.5c-.91,0-1.49.35-1.76,1.04-.23.5-.49,2.5-.75,6-.52,4.58-1.06,8.47-1.61,11.69-.22.33-.51.5-.86.5h-.03c-.18-.05-.33-.11-.44-.19.05.05.09.09.11.1.26.21.64.28.93.56.12.1.17.37.25.42.09.06.3.02.43.1.66.38.88.83,1.34,1.26.26.24.94.36,1.29.49.06-.29-.55-.3-.19-.54.14-.09,1.02.35,1.13.46.09.09.08.31.14.35.02.01.04.02.07.02,1.41-6.03,2.11-11.61,2.11-16.73,0-2.84-.14-4.46-.39-4.86ZM1113.82,652.77s-.06-.06-.09-.09c-.69.01-.63-.25-1.11-.58-.13-.09-.32-.09-.33-.1-.11-.11.42-.39.34-.67-.12.17-.48-.01-.54.04-.09.07-.07.29-.19.39-.47.43-1.39-.07-1.34-.71-.31-.07-.25.39-.43.47-.34.15-.25-.34-.38-.38-.37-.12-.17.26-.3.3-.03,0-.06.02-.09.02-.06.25-.12.51-.19.76-.04.05-.07.09-.12.14.06-.04.12-.07.22-.07.13.7.33,0,.66.02.23.02.52.55.73.36.02.09-.03.36,0,.38.05.05,1.21.14,1.34-.1v.29c.35-.23.86-.55,1.29-.48.26.04.62.57.53,0ZM1132.82,632.84c-.01-.59-.22-1.39-.16-1.94.02-.28.18-.44.19-.57.01-.23-.28-.68-.29-1.06-.03-.76.14-1.82.11-2.59-.06-1.49-.42-2.8-.39-4.33,0-.14.11-.31.1-.38,0-.09-.19-.08-.24-.15-.09-.14-.01-.36-.09-.49-.06-.08-.27-.09-.38-.19-.15-.14-.24-.43-.35-.6-.04-.07-.19-.07-.2-.12-.02-.2.2-.34.21-.57,0-.41-.51-.73-.25-1.3.08-.18.4-.27.43-.54.02-.22-.18-.5-.2-.77-.02-.29-.02-1.05,0-1.34.02-.39.33-.71.3-.96-.02-.24-.31-.31-.37-.5-.02-.07-.22-1.08-.22-1.14-.02-.27.17-.41.21-.67.09-.66-.19-.98-.21-1.44-.02-.52.31-1.1.2-1.84-.04-.33-.29-.49-.36-.78-.06-.26-.17-1.28-.1-1.5.04-.15.24-.21.27-.41.05-.33-.27-.63-.28-.95,0-.3.24-.6.25-.79.01-.16-.15-.3-.17-.47-.06-.58.43-.78.47-.97.02-.09-.18-.4-.18-.66-.02-.58.36-1.67.04-2.15-.11-.17-.72-.6-.76-.68-.02-.04-.15-.84-.15-.91.02-.31.51-.23.68-.48-.13-.25-.63-.19-.73-.33-.11-.15-.01-.67-.05-.91-.14-.94-1.21-.81-1.25-.98-.01-.07.08-.77.11-.8.27-.25.78.38.96.13.25-.34-.07-.55-.1-.76-.04-.31.03-.63-.01-.95l-.67-.44c-.09.27.25.2.29.34.08.27-.2.29-.33.44-.11.13.07.37-.34.28-.02-.27.04-.56,0-.81-.04-.23-.97-1.79-.06-1.49.12.04.77,1.16.72.24-.3-.37-1.02-1.05-1.12-1.48-.1-.42.08-.55.26-.89-.41.12-1.07-.24-.95-.7.04-.15.27-.28.25-.49-.02-.24-.68-.91-.73-1.09-.06-.21,0-.44-.02-.65,0-.06-.04-.1-.07-.15-.07.25-.31.41-.72.47-.22,0-.57-.26-1.07-.79-.95-.67-1.84-1.19-2.64-1.57-2.74-1.14-4.84-1.75-6.29-1.82-.64-.12-1.2-.18-1.68-.18,0-.02-.01-.03-.04-.03v.07c.28.46.83,1.13,1.65,2.04.04.17.07.28.07.36-.12.43-.35.64-.68.64h-.1c-.29,0-.7-.36-1.21-1.07-.41-.43-.83-.97-1.26-1.65-.18.53-.88,1.4-2.07,2.61-.09.09-.24.14-.43.14-.38,0-.61-.25-.68-.75,0-.22.29-.59.86-1.14.21-.27.51-.67.89-1.22v-.03h-.04c-3.05,0-6.18.96-9.37,2.89l-2.39,1.47s-.1.01-.22.04c-.48-.07-.72-.31-.72-.71,0-.33.33-.68,1-1.04,3.53-2.29,6.6-3.57,9.23-3.86,1.14-.15,2.18-.22,3.11-.22,0-.1.07-.22.22-.36v-2.08c.09-.45.31-.68.64-.68h.11c.38,0,.6.25.68.75v2.11l.04.25c1.81,0,3.94.35,6.4,1.04,2.05.71,3.68,1.45,4.89,2.21.65.38,1.23.89,1.76,1.54.02.03.05.09.07.18.09-.1.2-.23.15-.4-.03-.11-.19-.19-.26-.33-.04-.11.02-.33-.03-.39-.03-.04-.22-.01-.31-.11-.04-.04-.38-.46-.39-.48-.12-.28.02-.78-.14-1-.1-.14-.63.05-.88-.2-.11-.11-.1-.31-.23-.44-.17-.15-.62-.28-.83-.52-.18-.22-.18-.59-.2-.62-.03-.02-.28,0-.43-.1-.22-.14-.21-.44-.25-.47-.08-.07-1.24-.29-1.31-.33-.26-.15-1-.94-1.37-1.08-.19-.07-.42-.01-.57-.1-.12-.07-.15-.37-.35-.42-.15-.04-.56.13-.85.09-.53-.07-.14-.2-.8-.02-.35.1-.38-.18-.6-.31-.1-.06-.26-.02-.35-.08-.08-.05-.12-.31-.31-.4-1.56-.76-4.78-.25-6.48-.24-.25,0-1.05.04-1.21-.05-.32-.2.06-.25.14-.34.64-.61.76-.28,1.42-.51.21-.07.49-.45.52-.46.09-.02.89-.1.93-.09.17.06.02.39.78.29.19-.02.12-.2.32-.25.73-.2,2.19.19,2.87.51.36.17.59.64,1.08.41,0,.41-.31.22-.57.19-.07.39.46,0,.39.39.17.04.03-.19.14-.2.09.37.59.14.91.2.05-.49-.65-.09-.58-.48h.87c-.01.13.03.29,0,.42-.02.11-.23,0-.19.15.59.25.43-.49.81-.38.07.02.2.18.13.28-.02.04-.27-.06-.18.2l2.02.38c.09-.08-.57-.68-.61-.8-.09-.2.09-.59.03-.65-.08-.08-1.07-.07-1.28-.11-.27-.06-.62-.18-.97-.27-.07-.02-.06-.35-.25-.19-.04.03.08.23-.1.19.03-.22-.2-.23-.36-.27-.53-.08-1.09.03-1.61-.03-.3-.04-1.02-.36-1.26-.38-.19-.02-.36.21-.67.21s-.41-.17-.67-.21c-1.16-.16-2.66.37-3.69.67-.95.28-1.21.13-1.98.23-.06,0-1.04.44-1.09.48-.09.06-.35.55-.31.68.1.35,1.04-.15.86.2-.15.3-1.18.2-1.54.58-.6.63-.07,1.28-.52,1.78-.08.09-.24.16-.35.23-.13.08-.75.3-.83.36-.09.07-.07.34-.17.46-.09.11-.36.14-.54.33-.22.24-.3.3-.45.46-.06.07.02.34-.15.47-.18.15-.46.05-.66.11-.18.06-.58.23-.73.33-.51.31-1.01,1.16-1.5,1.38-.18.08-.09-.2-.28-.2-.18,0-.36.07-.52.12-.09.12.13.53.09.57-.01.02-.32,0-.46.06-.19.09-.05.2-.51.32-.02.01-.06.08-.09.1.02.03-.02.18,0,.19.1.07.41-.17.46.27.08.67-.45.55-.66.75-.11.11-.08.36-.25.42-.3.1-.89-.2-.81.4l.77-.19c-.12,1.08.17.73.45.01.09-.24-.1-.36.31-.3.06.05.02,1.23-.02,1.37-.05.18-.49.52-.44.77.02.13.25.22.31.36.09.18.09.4.17.6.06.14.25.22.25.39,0,.39-.34.63-.5.84-.26.37-.51,2.63-.55,3.21,0,.2.1.38.1.57,0,.27-.45,1.06-.44,1.35.06,1.06.3,1.61.04,2.86-.03.12-.14.71-.17.74-.04.04-.28-.01-.38,0,.1.22.03.63-.07.84-.13.25-.57.3-.51.63.01.07.18.09.23.16.22.35.38.62.55.97.07.14.47.32-.01.51.28.02.25,1.01.2,1.24-.02.1-.24.02-.28.06-.04.04-.01.35-.06.48-.06.22-.31.14-.25.43.52.09.3.25.39.55.02.1.19.04.19.12,0,.25-.47.24-.39.57.09.32.92-.23.2.49.49.16,0,.59,0,.76,0,.07.18.04.19.06.16.2-.17.18-.18.19-.16.18.21.22.29.32.29.39-.13,1.86-.12,2.42.01.43.31.97.25,1.44-.05.36-.11.47-.15.96,0,.12-.06.79-.09.81-.07.08-.47-.18-.39.25.06.3.3.17.39.3.14.19.12,1.11,0,1.32-.07.14-.41-.06-.29.3.04.12.35.06.39.21.07.3-.07.69-.06.96,0,.49.3,1.31-.23,1.52.32.07.15.3.22.55.06.21.2.33.18.6-.01.18-.2.13-.21.2-.02.14.12,1-.02,1.17-.02.03-.46.06.03.25-.07.2-.38.03-.38.1,0,.12.07.51.06.69-.05.75-.09.95.01,1.73.02.17-.1.31-.04.51.1.32.37.24.43.3.04.05.09.83.22.99l-.29.1c.08.18.46.12.48.14.05.05-.22,1.12-.2,1.39.04.56.11.88.12,1.54.02.97.48,1.89.44,2.9-.01.21-.28.36-.25.54.02.14.31.26.35.42.05.19-.12.37-.13.55,0,.28.06.87.2,1.1.51.79.53,1.38.86,2.3.09.5-.04,1.86.14,2.24.04.08.75.45.91.93.05.14.31,1.18.33,1.31.04.32-.11,1.16.15,1.48.07.1.24.07.31.12.04.04.27.5.41.67.22.23.86.96,1.28,1.41-.07-.11-.1-.24-.1-.38v-.04l.82-5.65c.41-3.01.8-6.59,1.18-10.76.26-1.38.64-2.3,1.15-2.75.67-.64,1.55-.96,2.64-.96h.5c1.41,0,2.37.58,2.9,1.75.31.45.46,2.3.46,5.54,0,5.53-.73,11.33-2.2,17.41.18,0,.37-.01.54,0,1.19.06,2.64.46,3.74.18.06-.01.14-.33.45-.19-.15-.15-.28-.53-.41-.64-.12-.11-.36-.06-.36-.22.46-.04.81-.31,1.29-.29.6.02,1.13.11,1.75.09.17,0,.39,0,.61,0-1.3-5.67-1.95-11-1.95-16.01v-.71c0-3.12.19-4.89.57-5.29.55-1.07,1.45-1.61,2.72-1.61h.61c1.65,0,2.75.69,3.32,2.07.31.47.6,2.42.86,5.82.43,4.12.97,8.2,1.61,12.23,0,.47-.3.76-.89.86h-.07c-.5,0-.8-.5-.89-1.5-.71-4.28-1.36-9.53-1.93-15.72-.19-.86-.46-1.42-.79-1.68-.36-.22-.78-.32-1.25-.32h-.57c-.71,0-1.14.35-1.29,1.04-.17.6-.25,1.95-.25,4.07v.97c0,4.56.64,9.71,1.92,15.43.14-.01.27-.03.37-.08.19-.09.18-.39.65-.41.25-.01.46.22.67-.1.12.49.35.55.83.44l2.47-1.17c.59-.75,1-1.03,1.88-1.29.35-.1,1.13-.95,1.44-1.13.13-.07.34.02.47-.06.12-.09.04-.47.28-.59.04-.02.58-.14.63-.14,0,0,.01,0,.01,0,0,0,.01.01.01.02,0,0,0,.01,0,.02,0,.01.01.04.01.06,0,0,0,.01,0,.01,0,.01,0,.02.01.03,0,.01,0,.02.01.02s.01.01.02.01c.1.01.35-.09.52-.1.23-.94.25-.63.76-1.31.25-.34.15-.64.26-.99.08-.25.36-.31.47-.57.05-.11.23-.72.23-.83.04-.52-.35-.84.02-1.42.38-.59.72.23,1.05,0,0,0,0,0,.01-.02,0,0,0-.01.01-.02.02-.03.04-.08.07-.14.02-.02.03-.06.04-.09.02-.04.03-.07.05-.1,0-.02.01-.04.02-.06.01-.04.03-.08.05-.12.03-.08.07-.17.1-.25.02-.04.04-.08.05-.12,0-.02.02-.04.02-.06.01-.04.03-.07.04-.1.03-.09.06-.16.07-.21,0,0,0-.01,0-.02.01-.03.02-.06.02-.06,0-.14-.18-.24-.19-.38,0-.13.14-.27.17-.41.25-1.34.31-3.2.28-4.57ZM1099.4,585.77c.06.03-.06.16-.19.09-.07-.03.06-.16.19-.09ZM1098.22,612.44s0-.04-.01-.06v-.12l.02.21s0-.02-.01-.02ZM1098.61,611.18s-.02.04-.02.06c-.01.02-.02.04-.03.06-.02.04-.04.08-.06.12-.01.02-.02.05-.04.07-.02.06-.06.13-.08.2-.01.03-.02.06-.04.09-.01.03-.02.06-.03.1-.02.04-.04.09-.05.14,0,.03-.02.06-.02.09,0,.05-.02.09-.02.14l-.15-1.14c.06-.25.53-.19.57-.01,0,.01,0,.04-.02.09ZM1099.02,590.09c-.13-.22.13-.93.09-.96-.02-.02-.21.05-.3-.06-.34-.44.38-.71.49-.61.06.06-.14.44-.09.57l.28-.09c0,.19-.12,1.5-.47,1.15ZM1105.87,624.37c-1.36.24-2.56.36-3.61.36-.47,0-.75-.3-.82-.89,0-.41.23-.69.68-.86,2.36,0,4.46-.42,6.29-1.25.76-.47,1.14-.98,1.14-1.5,0-.95-1.44-1.74-4.32-2.35-.93-.1-1.4-.23-1.4-.39-.17-.15-.25-.33-.25-.57.12-.6.41-.89.86-.89,1.62.19,2.99.52,4.11,1,1.84.81,2.75,1.9,2.75,3.25,0,2.03-1.81,3.4-5.44,4.11ZM1104.11,606.82c.23-.23,1.02.13.77.38-.07.07-.46-.12-.56-.17-.06-.02-.38-.03-.21-.22ZM1109.31,612.34c-.12.46-.32.68-.61.68h-.21c-.43,0-.7-.55-.79-1.64-.14-1.05-.22-1.98-.22-2.79.17-3.09.37-4.65.61-4.65.14-.12.3-.18.46-.18.47.07.72.29.72.65-.24,2.12-.36,3.53-.36,4.22,0,.83.13,2.07.39,3.72ZM1108.49,601.77c-.1.09-.22.14-.36.14h-.18c-.31,0-.52-.24-.61-.71,0-.17.23-.54.68-1.11.65-.93.97-2.13.97-3.61v-.54c.09-.4.28-.6.57-.6h.22c.38,0,.6.25.65.75v.43c0,2.14-.65,3.9-1.93,5.26ZM1114.53,598.91c0,1.55-.41,3.23-1.22,5.04-.33.93-.5,2.03-.5,3.29v.36c0,1.81.3,3.91.89,6.29,0,.4-.25.64-.75.71-.45,0-.73-.48-.86-1.43-.45-1.95-.68-3.75-.68-5.4v-.64c0-1.79.37-3.47,1.11-5.04.41-1.07.6-2.14.6-3.22v-.32c0-.86-.13-1.76-.39-2.68v-.11c0-.38.25-.6.75-.68.48,0,.78.51.9,1.53.09.6.14,1.2.14,1.79v.51ZM1113.6,591.79c-.24-.21-.39-.32-.47-.32-2.81,2.29-5.02,3.43-6.64,3.43-.46,0-.98-.09-1.57-.28-.15.36-.31,1.51-.51,3.46-.1,1.74-.18,3.36-.25,4.87.11-.24.28-.42.43-.27.02.02-.02.22.02.31.1.2.33.3.26.55h-.75c-.13,3.07-.19,5.67-.19,7.8-.12.38-.33.57-.64.57h-.07c-.33,0-.56-.19-.68-.57v-.04c.14-8.2.33-13.05.57-14.54,0-.57.14-1.45.43-2.65-2.12-.9-3.18-1.98-3.18-3.25v-.07c0-1.02.97-2.16,2.93-3.4.76-.62,1.25-.93,1.46-.93h.04c.33,0,.57.18.71.54v.22c0,.31-.36.65-1.07,1.04l-2,1.54c-.45.45-.68.81-.68,1.07,0,.62.79,1.26,2.36,1.93.19-.65.92-1.58,2.18-2.82,1.02-.96,2.31-1.81,3.86-2.58.17-.09.32-.14.47-.14.45.09.68.3.68.6v.25c0,.27-.32.52-.97.79-2.26,1.16-3.89,2.63-4.89,4.39.31.1.64.15,1,.18,1.29,0,3.27-1.07,5.93-3.22.22-.24.56-.36,1.04-.36.14,0,.52.28,1.15.86,2.05,1.74,3.64,2.61,4.79,2.61.76-.07,1.14-.18,1.14-.33-.36-.78-.83-1.55-1.43-2.29-1.33-1.41-2.35-2.38-3.04-2.93-.07-.15-.1-.24-.1-.29v-.18c0-.31.19-.52.57-.64h.18c.21,0,.65.32,1.32.96,1.65,1.55,2.55,2.51,2.72,2.9.72,1.12,1.07,1.75,1.07,1.9,1.45-.76,2.18-1.48,2.18-2.14,0-.62-.76-1.44-2.29-2.47,0-.02-.33-.3-1-.82-.07-.14-.1-.31-.1-.5,0-.33.23-.55.71-.65.23,0,.82.41,1.75,1.22,1.55,1.05,2.32,2.12,2.32,3.22v.1c0,1.19-1,2.31-3,3.36.57,1.31,1.02,4.35,1.36,9.12.22,3.79.32,6.46.32,8.01-.12.43-.31.65-.57.65h-.22c-.26,0-.47-.18-.61-.54,0-2.96-.23-6.91-.68-11.87-.28-2.24-.57-3.8-.86-4.68-.05-.02-.09-.03-.11-.03-.62.23-1.2.36-1.75.36-1.45,0-3.33-1-5.65-3.01ZM1118.28,611.49v.18c0,.36-.24.57-.71.64-.36,0-.61-.22-.75-.68-.65-1.41-.97-3.03-.97-4.86.07-2.19.23-3.29.47-3.29.12-.12.26-.18.43-.18h.11c.43.09.64.31.64.64-.12.81-.19,1.76-.22,2.83,0,1.71.33,3.28,1,4.71ZM1117.71,601.37c-.19.19-.35.28-.47.28h-.21c-.41-.09-.61-.31-.61-.64v-.14c.46-1.36.68-2.54.68-3.54v-.07c0-.17-.02-.57-.07-1.21,0-.29.21-.48.64-.57h.18c.38,0,.6.36.64,1.07.02.07.04.26.04.57v.36c0,1.26-.27,2.56-.82,3.9ZM1124.78,624.72c-1.93,0-3.87-.31-5.82-.93-2.14-.83-3.22-2.01-3.22-3.54v-.07c0-2.1,2.17-3.48,6.5-4.14.05,0,.17-.01.36-.04.55.12.83.38.83.78v.22c0,.43-.32.69-.97.79-3.31.52-4.97,1.34-4.97,2.47s1.61,2.02,4.83,2.54c.6.07,1.5.14,2.72.22.38.21.57.5.57.86-.12.57-.39.86-.83.86ZM1127.09,598.84c.35-.09.43,1.02.38,1.06-.35.34-.45-.88-.38-1.06ZM1127.2,601.46c-.05-.19-.06-.38.12-.51.48-.15.33.96.43,1.25l-.55-.75ZM1130.41,606.25c-.25.33-1.19-.04-.25-.34-.93-.31-.18-.67.08-.52.12.07.27.73.17.86ZM1130.06,601.34c-.2,0-.44.03-.59-.14-.52-.66.86-1.12.59.14ZM1129.76,601.66c.28.13.68,1.32.35,1.42-.51.15-.55-.34-.75-.65-.04-.07-.23-.09-.25-.18-.06-.18.42-.7.65-.59ZM1129.11,604.84c-.12-.36.43-.38.47-.43.02-.03-.3-.75.04-.86.56-.17.2.73.27.84.02.03.15-.02.18.16.14,1.05-.88.55-.96.28ZM1129.59,609.39c.04-.09.18-.08.19-.12,0-.22-.51-.59.14-.63.1,0,.48.06.52.12.21.33-.28.48-.28.51s.2.14.18.27c-.01.07-.14.17-.17.31-.1.43.17.7-.59.62.04-.35-.14-.74.01-1.08ZM1129.93,611.94c.07,0,.46.06.49.09.02.01.22.43.21.45,0,0-.11,0-.15.04-.07.12-.06.25-.18.35-.58.44-1.06-.84-.37-.92ZM1130.16,615.86c-.49.02-.53-.93-.1-.67.06.03.15.62.1.67ZM1129.97,614.32l.09-.38h-.38c-.09-.3.09-.5.38-.54.04,0,.55.23.57.25.17.2-.27.91-.67.67Z"/>
    <path class="st2" d="M1133.98,627.61c.13.14.04.74.14.83.02.02.54.13.56.11.03-.02.08-.54.24-.58.46-.11.16,1.47.16,1.68.03,1.25.21,2.49.16,3.75-.01.24-.19.46-.19.77,0,.29.17.45.17.65,0,.08-.23,1.18-.27,1.36s-.61,1.53-.68,1.58-.25-.02-.34.04c-.09.05-.2.52-.41.56.22-.45-.35-.79-.38-.93-.02-.1.15-.23.18-.38.1-.56.39-1.92.39-2.4.02-1.8-.21-3.75-.19-5.57,0-.53.18-1.09,0-1.68.1.11.4.16.45.22Z"/>
    <path class="st2" d="M1131.99,598.17l.19-.19c-.18.45.12.69.19,1.02.27,1.36.45,2.66.29,4.02-.02.19-.18.32-.19.4-.01.05.16.03.19.12.15.43-.08,1.14.49,1.08.02.32-.41.19-.29.58.48-.14.25.61.29,1.01.08.86.58,1.09.73,1.68.07.3.14,1.32.15,1.69,0,.26-.14.5-.1.77.54-.1-.21.42-.31.65-.07.18-.05.46-.12.56-.16.22-.69-.09-.63.28-.12.03-.15-.18-.17-.26-.06-.38.02-.77-.03-1.13-.38-2.48-.57-4.68-.57-7.21,0-1.36-.3-2.74-.48-4.05-.05-.37.04-.77-.1-1.15.12-.2.44.17.48.14Z"/>
    <path class="st2" d="M1097.39,589.47s0-.1,0-.15c-.68.25-.38-.05-.62-.29-.07-.07-.21-.07-.3-.14-.04-.02-.04-.28-.22-.15-.01,0,.02.14-.07.18-.34.18-.47-.04-.5.64,0,.17.1.32.09.45,0,.04-.51.52-.55.71-.3,1.22-.47,3.4-.51,4.68-.02.94.03,1.89,0,2.83.23.06.2-.09.26-.26l.12-1.18v3.37c.24.02.17.02.19-.14.1-.73,0-1.47.09-2.12.02-.18.18-.13.2-.2.06-.28-.04-.69,0-.99l.29.29-.1-.48c.55.12.2-.55.22-.84.07-1.22.52-2.61.83-3.76.14-.51.59-2.05.59-2.47ZM1095.75,592.3c-.25.27-.22-.63-.19-.67.06-.06.36.03.38.15,0,.05-.17.51-.19.52ZM1096.33,590.38c-.18-.17.71-.63.76-.57.01.48-.25.31-.4.39-.08.04-.2.35-.36.18Z"/>
    <path class="st2" d="M1104.88,578.94c.04.47-.48.4-.66.73-.26.46.11.88-.78.62-.15.18.01.58-.04.67-.07.11-.28.12-.37.19s-.11.24-.23.28c-.16.05-.42-.03-.5.03-.06.04-.06.32-.12.36-.09.06-.31-.04-.45.03-.21.12-.9,1.06-1.14,1.32-.1.11-.27.07-.23.2.57.13-.05.46-.18.64-.14.19-.18.59-.21.61-.03.03-.58-.18-.89-.08-.29.09-.35.77-.93.56.12-.28.17-.66.28-.92s1.29-1.36,1.59-1.59c.2-.15.62-.25.91-.53.44-.44.3-1.04.34-1.1.1-.13.41-.09.57-.18s.44-.46.75-.62c.23-.12.37.08.43-.35l1.86-.86Z"/>
    <path class="st2" d="M1095.36,618.16c-.04-.18-.31-.39-.3-.73,0-.2.17-.3.17-.46.04-.74-.22-1.65-.16-2.42.1-1.25-.03-2.36.08-3.67.05-.58-.19-1.13-.17-1.43.05-.63.24-1.58.29-2.21.02-.28-.11-.53-.1-.85.01-.29.07-.67.38-.54.05.05.08,1.11.1,1.29.09.66.3,1.4.19,2.12-.03.23-.2.37-.21.57-.02.29.19.42.21.67.18,1.74-.22,3.74-.3,5.48-.01.32.21.55.03.99-.06.15-.36.11-.22.63,0,.03.51.21,0,.26v.09s.19.19.19.19c-.06.01-.15-.02-.19,0,.04.21-.03.54,0,.77-.45.24-.27-.66-.18-.76.04-.04.14,0,.18-.01Z"/>
    <path class="st2" d="M1134.03,612.76c.12.1.39-.1.46.26.03.18.11,1.97.07,2.1-.05.16-.26.23-.26.4,0,.15.27.98.29,1.35.02.29.11.7-.19.77.43.49.2,1.34-.29,1.72-.26.21-.15-.09-.25-.22-.12-.17-.33-.29-.41-.45-.26-.49.11-1.35.17-1.92.12-1.22.22-2.82-.02-3.89-.07-.32-.14-.86.29-.48.12.11.11.34.15.37Z"/>
    <path class="st2" d="M1095.56,626.33s.03,1,0,1.09c-.04.13-.36.1-.29.36.66.01.1.22.1.25-.11.5.14.45.2.65.18.58.14,1.58.29,2.22-.04.51-.46.37-.5.49-.03.1-.02.9,0,1.05.04.27.59,1.09.58,1.24,0,.12-.16.22-.16.29,0,.32.17.76.23,1.08s.22,1.51.22,1.81c0,.45-.39.41-.59.1-.09-.15-.07-.33-.14-.44-.06-.1-.22-.08-.24-.1-.19-.24.27-.17.29-.19.2-.17-.38-.2-.19-.38.04-.04.34.14.38.1.19-.16-.19-.22-.19-.24.02-.18.21-.32.19-.66-.04-.63-.49-.5-.56-.7-.1-.28-.07-1.5-.11-1.91-.02-.18-.18-.32-.18-.48,0-.18.16-.42.18-.68.03-.36-.21-.97-.17-1.23.03-.21.26-.39.28-.69.02-.53-.4-.82-.29-1.23.02-.08.19-.07.2-.12.02-.31-.61-.94.19-.81.07-.21-.22-.58-.19-.71.04-.16.43-.19.48-.15Z"/>
    <path class="st2" d="M1097.85,645.03c.02-.2.19-.15.2-.19.08-.31-.35-.29-.55-.46-.04-.04,0-.19-.05-.24-.05-.05-.2,0-.24-.04-.04-.04-.04-.35-.13-.51-.1-.17-.36-.25-.38-.3-.07-.29.2-.23.19-.29-.01-.09-.39-.44-.28-.53.57.14.6-.34.86-.72-.11-.76-.39-1.51-.48-2.26-.05-.06-.54.18-.63.18-.04,0-.04-.14-.07-.15-.12-.05-.23-.04-.36-.03-.1.25.19.17.2.24.05.3-.22.41-.46.31-.02-.01-.09-.2-.37-.25-.31-.06,0,.25.03.36.64,2.05.95,2.71,2.03,4.51.09.15.43,1.15.68.89.16-.15-.22-.29-.2-.52ZM1096.13,640.75h-.38c-.03-.26-.04-.67.28-.47.04.02.14.44.1.47Z"/>
    <path class="st2" d="M1130.16,645.37c.03-.28-.03-.5-.1-.77,1.14.25.71.37.1.77,0,.11,0,.17-.05.28-.16.32-1.91,1.94-2.21,1.93-.14,0-.54-.7-.58-.87-.11-.45.85-.86,1.12-1.1.12-.11.74-.83.76-.92.13-.01.26,0,.38,0-.15.46-.35.72,0,1.15.05.05.35-.42.41-.45.07-.05.15-.02.16-.03Z"/>
    <path class="st2" d="M1132.88,642.13c-.11.16-1.08,2.02-1.37,1.7.02-.19-.05-.44.01-.61.04-.12.21-.12.25-.18.49-.76.44-1.52,1.42-2.29.11-.08.3-.08.33-.1.09-.11-.13-.82.59-.85.11.13-.37.95-.45,1.12-.03.06.07.2.02.32-.1.23-.68.74-.79.9Z"/>
    <path class="st2" d="M1135.06,626.14l.1,1.38c-.29.27-.67.41-.87-.03.1-.02.48-.42.49-.45.04-.2-.28-.85.28-.9Z"/>
    <path class="st2" d="M1115.93,651.33c.07.06-.33.48-.36.48-.08.01-1.03-.02-1.12-.04-.14-.04-.26-.09-.35-.21.55-.29,1.23-.08,1.83-.24Z"/>
    <path class="st2" d="M1115.36,652.58v.38c-.72-.27-1.01.41-1.54-.19-.03-.03-.07-.06-.1-.1.06,0,.19-.1.33-.1.47,0,.87.13,1.3,0Z"/>
    <path class="st2" d="M1095.36,620.28c.04.35-.12.68-.16,1.02-.02.22.24.6-.23.61.09-.25-.13-.72-.08-.89.03-.11.2-.19.26-.33.07-.19-.11-.48.21-.41Z"/>
    <path class="st2" d="M1134.78,622.87c0,.63.17,1.21-.67,1.15-.04-.29.23-.18.37-.46s-.14-.7.3-.7Z"/>
    <path class="st2" d="M1097.86,586.54s-.06.08-.1.1c-.08-.11-.53-.06-.67,0,.03-.14.25-.92.29-.96.25-.27.17.45.19.53.04.18.17.23.29.34Z"/>
    <path class="st2" d="M1094.69,635.95c-.08.43.79.93-.1,1.06,0-.24-.33-1.09.1-1.06Z"/>
    <path class="st2" d="M1129.78,590c-1-.05-.4-.29-.38-.35.05-.2-.03-.49,0-.71.24.03.42,1.02.38,1.06Z"/>
    <path class="st2" d="M1094.88,637.1c.07.05.06.9.1,1.06-.48-.09-.46-1.33-.1-1.06Z"/>
    <path class="st2" d="M1128.62,586.34l.1,1.35c-.18-.07-.27-.45-.29-.62-.01-.1-.04-1.03.19-.72Z"/>
    <path class="st2" d="M1107.48,652.1c-.29.56-.56.2-.87.1.1-.31.59-.11.87-.1Z"/>
    <path class="st2" d="M1094.68,626.92c.08.05.13.62.1.76l-.39-.43c-.06-.24.04-.48.29-.33Z"/>
    <path class="st2" d="M1098.15,637.39c-.08.33.03.79-.38.67.03-.45-.19-.78.38-.67Z"/>
    <path class="st2" d="M1121.9,579.42c.3.28-.6.14-.7.09-.12-.06-.08-.27-.07-.29.03-.03.74.17.77.19Z"/>
    <path class="st2" d="M1108.63,652.63s0,.1-.03.12c0,.01-.02.01-.03.02-.02,0-.04,0-.07,0s-.05,0-.07-.01-.04-.01-.06-.02c-.02-.02-.05-.04-.07-.06-.01-.01-.02-.02-.02-.03.03,0,.06.01.09.02h.04c.07,0,.15-.01.23-.04Z"/>
    <path class="st2" d="M1128.91,587.79c.03.13-.05.26-.19.29v-.29s.19,0,.19,0Z"/>
    <path class="st1" d="M1098.25,612.49s0-.02-.01-.03c0,0,0-.01,0-.02,0-.02-.01-.04-.01-.06,0-.01,0-.02,0-.04,0-.03,0-.05,0-.08l.03.23Z"/>
    <path class="st1" d="M1099.21,585.86c-.07-.03.06-.16.19-.09.07.03-.06.16-.19.09Z"/>
  </g>
</svg>