<?xml version="1.0" encoding="UTF-8"?>
<svg id="_图层_1" data-name="图层_1" xmlns="http://www.w3.org/2000/svg" version="1.1" viewBox="0 0 1920 1080">
  <!-- Generator: Adobe Illustrator 29.3.1, SVG Export Plug-In . SVG Version: 2.1.0 Build 151)  -->
  <defs>
    <style>
      .st0 {
        fill: #f7f8fa;
      }

      .st1 {
        fill: #050505;
      }

      .st2 {
        fill: #ff4d2e;
      }

      .st3 {
        fill: #b8bcc6;
      }

      .st4 {
        fill: #244cff;
      }
    </style>
  </defs>
  <rect class="st0" x="-3956" y="-9.29" width="1921" height="1098.58"/>
  <path class="st1" d="M537.54,610.49l11.8-31.06c7.29-15.57,21.3-8.96,34.54-10.55,1.62-.2,3.14-1.01,4.2-2.25,6.98-14.51,12.04-30,18.76-44.68.26-.39-.55-1.15-.67-1.15h-24.28c-1.64,0-6.47,2.89-7.68,4.21-19.67,25.54-36.35,55.84-56.58,80.68-1.53,1.88-3.82,4.8-6.6,4.8h-53.77c27.92-39.61,57.28-78.22,84.75-118.17,3.23-3.65,12.72-10.17,17.58-10.17h112.49c.2,0,.86.8.75,1.21l-44.66,110.96c-2.59,5.92-13.49,16.17-20.01,16.17h-70.61Z"/>
  <path class="st1" d="M807.36,482.15c.46.13.93.97.55,1.51-15.4,38.28-31.11,76.44-47.12,114.46-3.75,6.49-10.62,11.84-18.32,12.4l-96.11-.06c-6.26-1.36-9.36-6.19-8.66-12.54,8.48-21.08,16.02-44,25.63-64.56,4.47-9.57,11.35-15.96,22.15-17.5l57.89-.09c.81-.28,1.5-2.23,1.9-3.06,3.31-6.88,8.27-25,13.82-28.79.52-.35,3.35-1.77,3.68-1.77h44.6ZM697.73,576.67c.48.51,2.3,1.05,3.08,1.13,2.94.33,9.95.32,12.9-.01,3.39-.38,5.48-1.94,7.04-4.85,3.66-6.82,5.86-16.07,9.36-23.15-.22-1.33-.74-1.61-2-1.76-3.26-.4-12.62-.38-15.9.02-3.52.42-5.37,3.25-6.77,6.12-2.36,4.84-6.16,13.52-7.73,18.53-.4,1.27-1.09,2.8.02,3.97Z"/>
  <path class="st1" d="M921.58,610.49l16.13-39.61c2.77-5.04,11.99-12.91,17.81-12.91h37.91c.11.7-.07,1.32-.24,1.99-1.12,4.25-5.22,10.29-6,14.35-.3,1.57-.2,2.43,1.41,3.11s12.72.63,14.99.38c6.98-.79,8.03-7.41,10.39-12.9,1.3-3.02,5.13-11.17,5.51-13.85.14-.97-.9-2.98-1.53-2.98h-70.61c2-5.76,4.2-12.69,6.84-18.18,3.72-7.73,12.08-13.45,20.64-14.05,30.33-2.12,63.11,1.65,93.7,0,7.43.52,11.39,6.7,9.92,13.92l-27.29,67.35c-1.84,4.57-11.58,13.39-16.34,13.39h-113.23Z"/>
  <path class="st1" d="M1129.7,610.49l23.67-58.84c.47-2.61-.07-3.38-2.59-3.62-3-.28-12.59-.41-15.28.14-2.01.41-3.69,2.46-5.05,3.87l-23.58,57.19c-.74.08-2.84,1.26-3.2,1.26h-47.32l35.26-87.39c1.24-2.99,3.81-5.34,6.75-6.63,34.52-1.46,69.33-.19,103.95-.64,9.49,1.28,11.57,8.06,9.02,16.49-7.34,24.31-21.44,49.2-29.52,73.55-.3,1.52-2.84,4.62-4.3,4.62h-47.82Z"/>
  <path class="st1" d="M887.39,515.85l.25,1.53-10.56,25.57c-1.15,2.95-4.2,4.77-7.27,5.11-8.14.92-23.53-2.94-28.7,4.01-8.17,18.21-15.21,37.04-22.71,55.58-.16.87-3.12,2.85-3.59,2.85h-47.57c-.06,0-.96-.7-.53-1.01l32.41-78.11c2.6-6.5,13.07-15.52,20.16-15.52h68.14Z"/>
  <path class="st1" d="M948.09,515.85c.7.21.95,1.36.52,1.98-12.85,28.8-22.74,60.29-36.21,88.68-.81,1.7-1.6,3.98-3.95,3.98h-47.82l38.9-94.65h48.56Z"/>
  <path class="st1" d="M1298.06,528.81c1.03-.18,1.42.03,2.29.48,6.97,3.64,1.17,24.49-7.26,22.63-7.77-1.71-2.98-21.76,4.97-23.11Z"/>
  <path class="st1" d="M1379.83,533.78c11.86-2.27,3.81,27.92-5.52,21.15-5.29-3.83-1.05-19.9,5.52-21.15Z"/>
  <path class="st1" d="M1435.22,492.04l-159.45.15c-8.44,1.86-15.4,7.77-19.31,15.38l-33.95,86.96c-2.36,8.42.74,15.68,9.99,16.47l66.32.09,19.4,19.74,1.49.5,30.37-20.22c23.01-3.01,51.71,9.45,63.45-17.33,12.06-27.54,20.1-58.56,32.1-86.33,1.65-7.68-2.32-14.71-10.42-15.4ZM1272.46,577.99c-25.48-18.42-1.08-62.82,26.61-65.97,19.61-2.24,30.51,12.26,28.84,30.83-2.1,23.39-32.82,51.5-55.45,35.15ZM1340.9,579.98c-.79,2.56-1.87,5.01-3.16,7-1.58,2.45-3.45,4.24-5.42,4.76-4.97,1.3-7.56-.97-8.49-4.76-.58-2.32-.52-5.2-.02-8.17.2-1.2,1.24-2.08,2.46-2.08h12.25c.1,0,.19,0,.29.02,1.53.18,2.55,1.71,2.08,3.23ZM1405.73,557.73c-6.52,16.4-28.5,31.33-44.62,18.33-20.1-16.22-2.06-52.44,21.7-55.12,21.88-2.47,30.08,18.77,22.92,36.79Z"/>
  <ellipse class="st4" cx="-3804" cy="146.5" rx="124" ry="63.27"/>
  <ellipse class="st2" cx="-3502" cy="146.5" rx="124" ry="63.27"/>
  <ellipse class="st0" cx="-2477" cy="146.5" rx="124" ry="63.27"/>
  <ellipse class="st0" cx="-2684" cy="421.5" rx="124" ry="63.27"/>
  <ellipse class="st1" cx="-2798" cy="146.5" rx="124" ry="63.27"/>
  <ellipse class="st3" cx="-3118" cy="146.5" rx="124" ry="63.27"/>
  <path class="st1" d="M-3809.46,492.01l11.8-31.06c7.29-15.57,21.3-8.96,34.54-10.55,1.62-.2,3.14-1.01,4.2-2.25,6.98-14.51,12.04-30,18.76-44.68.26-.39-.55-1.15-.67-1.15h-24.28c-1.64,0-6.47,2.89-7.68,4.21-19.67,25.54-36.35,55.84-56.58,80.68-1.53,1.88-3.82,4.8-6.6,4.8h-53.77c27.92-39.61,57.28-78.22,84.75-118.17,3.23-3.65,12.72-10.17,17.58-10.17h112.49c.2,0,.86.8.75,1.21l-44.66,110.96c-2.59,5.92-13.49,16.17-20.01,16.17h-70.61Z"/>
  <path class="st1" d="M-3539.64,363.67c.46.13.93.97.55,1.51-15.4,38.28-31.11,76.44-47.12,114.46-3.75,6.49-10.62,11.84-18.32,12.4l-96.11-.06c-6.26-1.36-9.36-6.19-8.66-12.54,8.48-21.08,16.02-44,25.63-64.56,4.47-9.57,11.35-15.96,22.15-17.5l57.89-.09c.81-.28,1.5-2.23,1.9-3.06,3.31-6.88,8.27-25,13.82-28.79.52-.35,3.35-1.77,3.68-1.77h44.6ZM-3649.27,458.19c.48.51,2.3,1.05,3.08,1.13,2.94.33,9.95.32,12.9-.01,3.39-.38,5.48-1.94,7.04-4.85,3.66-6.82,5.86-16.07,9.36-23.15-.22-1.33-.74-1.61-2-1.76-3.26-.4-12.62-.38-15.9.02-3.52.42-5.37,3.25-6.77,6.12-2.36,4.84-6.16,13.52-7.73,18.53-.4,1.27-1.09,2.8.02,3.97Z"/>
  <path class="st1" d="M-3425.42,492.01l16.13-39.61c2.77-5.04,11.99-12.91,17.81-12.91h37.91c.11.7-.07,1.32-.24,1.99-1.12,4.25-5.22,10.29-6,14.35-.3,1.57-.2,2.43,1.41,3.11s12.72.63,14.99.38c6.98-.79,8.03-7.41,10.39-12.9,1.3-3.02,5.13-11.17,5.51-13.85.14-.97-.9-2.98-1.53-2.98h-70.61c2-5.76,4.2-12.69,6.84-18.18,3.72-7.73,12.08-13.45,20.64-14.05,30.33-2.12,63.11,1.65,93.7,0,7.43.52,11.39,6.7,9.92,13.92l-27.29,67.35c-1.84,4.57-11.58,13.39-16.34,13.39h-113.23Z"/>
  <path class="st1" d="M-3217.3,492.01l23.67-58.84c.47-2.61-.07-3.38-2.59-3.62-3-.28-12.59-.41-15.28.14-2.01.41-3.69,2.46-5.05,3.87l-23.58,57.19c-.74.08-2.84,1.26-3.2,1.26h-47.32l35.26-87.39c1.24-2.99,3.81-5.34,6.75-6.63,34.52-1.46,69.33-.19,103.95-.64,9.49,1.28,11.57,8.06,9.02,16.49-7.34,24.31-21.44,49.2-29.52,73.55-.3,1.52-2.84,4.62-4.3,4.62h-47.82Z"/>
  <path class="st1" d="M-3459.61,397.36l.25,1.53-10.56,25.57c-1.15,2.95-4.2,4.77-7.27,5.11-8.14.92-23.53-2.94-28.7,4.01-8.17,18.21-15.21,37.04-22.71,55.58-.16.87-3.12,2.85-3.59,2.85h-47.57c-.06,0-.96-.7-.53-1.01l32.41-78.11c2.6-6.5,13.07-15.52,20.16-15.52h68.14Z"/>
  <path class="st1" d="M-3398.91,397.36c.7.21.95,1.36.52,1.98-12.85,28.8-22.74,60.29-36.21,88.68-.81,1.7-1.6,3.98-3.95,3.98h-47.82l38.9-94.65h48.56Z"/>
  <path class="st1" d="M-3385.53,363.67c.46.13.93.96.55,1.5l-9.35,22.15c-1.08.89-7.52.05-9.56.11-11.8.33-24.35,1.45-36.17.54-.91-.07-3.46-.37-3.96-1,2.62-4.93,5.3-17.17,9.22-20.53.51-.44,4.4-2.77,4.67-2.77h44.6Z"/>
  <path class="st2" d="M-3048.94,410.33c1.03-.18,1.42.03,2.29.48,6.97,3.64,1.17,24.49-7.26,22.63-7.77-1.71-2.98-21.76,4.97-23.11Z"/>
  <path class="st2" d="M-2967.17,415.3c11.86-2.27,3.81,27.92-5.52,21.15-5.29-3.83-1.05-19.9,5.52-21.15Z"/>
  <path class="st2" d="M-2911.78,373.56l-159.45.15c-8.44,1.86-15.4,7.77-19.31,15.38l-33.95,86.96c-2.36,8.42.74,15.68,9.99,16.47l66.32.09,19.4,19.74,1.49.5,30.37-20.22c23.01-3.01,51.71,9.45,63.45-17.33,12.06-27.54,20.1-58.56,32.1-86.33,1.65-7.68-2.32-14.71-10.42-15.4ZM-3074.54,459.51c-25.48-18.42-1.08-62.82,26.61-65.97,19.61-2.24,30.51,12.26,28.84,30.83-2.1,23.39-32.82,51.5-55.45,35.15ZM-3006.1,461.49c-.79,2.56-1.87,5.01-3.16,7-1.58,2.45-3.45,4.24-5.42,4.76-4.97,1.3-7.56-.97-8.49-4.76-.58-2.32-.52-5.2-.02-8.17.2-1.2,1.24-2.08,2.46-2.08h12.25c.1,0,.19,0,.29.02,1.53.18,2.55,1.71,2.08,3.23ZM-2941.27,439.25c-6.52,16.4-28.5,31.33-44.62,18.33-20.1-16.22-2.06-52.44,21.7-55.12,21.88-2.47,30.08,18.77,22.92,36.79Z"/>
  <path class="st1" d="M-3809.46,684.49l11.8-31.06c7.29-15.57,21.3-8.96,34.54-10.55,1.62-.2,3.14-1.01,4.2-2.25,6.98-14.51,12.04-30,18.76-44.68.26-.39-.55-1.15-.67-1.15h-24.28c-1.64,0-6.47,2.89-7.68,4.21-19.67,25.54-36.35,55.84-56.58,80.68-1.53,1.88-3.82,4.8-6.6,4.8h-53.77c27.92-39.61,57.28-78.22,84.75-118.17,3.23-3.65,12.72-10.17,17.58-10.17h112.49c.2,0,.86.8.75,1.21l-44.66,110.96c-2.59,5.92-13.49,16.17-20.01,16.17h-70.61Z"/>
  <path class="st1" d="M-3539.64,556.15c.46.13.93.97.55,1.51-15.4,38.28-31.11,76.44-47.12,114.46-3.75,6.49-10.62,11.84-18.32,12.4l-96.11-.06c-6.26-1.36-9.36-6.19-8.66-12.54,8.48-21.08,16.02-44,25.63-64.56,4.47-9.57,11.35-15.96,22.15-17.5l57.89-.09c.81-.28,1.5-2.23,1.9-3.06,3.31-6.88,8.27-25,13.82-28.79.52-.35,3.35-1.77,3.68-1.77h44.6ZM-3649.27,650.67c.48.51,2.3,1.05,3.08,1.13,2.94.33,9.95.32,12.9-.01,3.39-.38,5.48-1.94,7.04-4.85,3.66-6.82,5.86-16.07,9.36-23.15-.22-1.33-.74-1.61-2-1.76-3.26-.4-12.62-.38-15.9.02-3.52.42-5.37,3.25-6.77,6.12-2.36,4.84-6.16,13.52-7.73,18.53-.4,1.27-1.09,2.8.02,3.97Z"/>
  <path class="st1" d="M-3425.42,684.49l16.13-39.61c2.77-5.04,11.99-12.91,17.81-12.91h37.91c.11.7-.07,1.32-.24,1.99-1.12,4.25-5.22,10.29-6,14.35-.3,1.57-.2,2.43,1.41,3.11s12.72.63,14.99.38c6.98-.79,8.03-7.41,10.39-12.9,1.3-3.02,5.13-11.17,5.51-13.85.14-.97-.9-2.98-1.53-2.98h-70.61c2-5.76,4.2-12.69,6.84-18.18,3.72-7.73,12.08-13.45,20.64-14.05,30.33-2.12,63.11,1.65,93.7,0,7.43.52,11.39,6.7,9.92,13.92l-27.29,67.35c-1.84,4.57-11.58,13.39-16.34,13.39h-113.23Z"/>
  <path class="st1" d="M-3217.3,684.49l23.67-58.84c.47-2.61-.07-3.38-2.59-3.62-3-.28-12.59-.41-15.28.14-2.01.41-3.69,2.46-5.05,3.87l-23.58,57.19c-.74.08-2.84,1.26-3.2,1.26h-47.32l35.26-87.39c1.24-2.99,3.81-5.34,6.75-6.63,34.52-1.46,69.33-.19,103.95-.64,9.49,1.28,11.57,8.06,9.02,16.49-7.34,24.31-21.44,49.2-29.52,73.55-.3,1.52-2.84,4.62-4.3,4.62h-47.82Z"/>
  <path class="st1" d="M-3459.61,589.85l.25,1.53-10.56,25.57c-1.15,2.95-4.2,4.77-7.27,5.11-8.14.92-23.53-2.94-28.7,4.01-8.17,18.21-15.21,37.04-22.71,55.58-.16.87-3.12,2.85-3.59,2.85h-47.57c-.06,0-.96-.7-.53-1.01l32.41-78.11c2.6-6.5,13.07-15.52,20.16-15.52h68.14Z"/>
  <path class="st1" d="M-3398.91,589.85c.7.21.95,1.36.52,1.98-12.85,28.8-22.74,60.29-36.21,88.68-.81,1.7-1.6,3.98-3.95,3.98h-47.82l38.9-94.65h48.56Z"/>
  <path class="st1" d="M-3385.53,556.15c.46.13.93.96.55,1.5l-9.35,22.15c-1.08.89-7.52.05-9.56.11-11.8.33-24.35,1.45-36.17.54-.91-.07-3.46-.37-3.96-1,2.62-4.93,5.3-17.17,9.22-20.53.51-.44,4.4-2.77,4.67-2.77h44.6Z"/>
  <path class="st4" d="M-3048.94,602.81c1.03-.18,1.42.03,2.29.48,6.97,3.64,1.17,24.49-7.26,22.63-7.77-1.71-2.98-21.76,4.97-23.11Z"/>
  <path class="st4" d="M-2967.17,607.78c11.86-2.27,3.81,27.92-5.52,21.15-5.29-3.83-1.05-19.9,5.52-21.15Z"/>
  <path class="st4" d="M-2911.78,566.04l-159.45.15c-8.44,1.86-15.4,7.77-19.31,15.38l-33.95,86.96c-2.36,8.42.74,15.68,9.99,16.47l66.32.09,19.4,19.74,1.49.5,30.37-20.22c23.01-3.01,51.71,9.45,63.45-17.33,12.06-27.54,20.1-58.56,32.1-86.33,1.65-7.68-2.32-14.71-10.42-15.4ZM-3074.54,651.99c-25.48-18.42-1.08-62.82,26.61-65.97,19.61-2.24,30.51,12.26,28.84,30.83-2.1,23.39-32.82,51.5-55.45,35.15ZM-3006.1,653.98c-.79,2.56-1.87,5.01-3.16,7-1.58,2.45-3.45,4.24-5.42,4.76-4.97,1.3-7.56-.97-8.49-4.76-.58-2.32-.52-5.2-.02-8.17.2-1.2,1.24-2.08,2.46-2.08h12.25c.1,0,.19,0,.29.02,1.53.18,2.55,1.71,2.08,3.23ZM-2941.27,631.73c-6.52,16.4-28.5,31.33-44.62,18.33-20.1-16.22-2.06-52.44,21.7-55.12,21.88-2.47,30.08,18.77,22.92,36.79Z"/>
  <path class="st1" d="M-3809.46,1025.49l11.8-31.06c7.29-15.57,21.3-8.96,34.54-10.55,1.62-.2,3.14-1.01,4.2-2.25,6.98-14.51,12.04-30,18.76-44.68.26-.39-.55-1.15-.67-1.15h-24.28c-1.64,0-6.47,2.89-7.68,4.21-19.67,25.54-36.35,55.84-56.58,80.68-1.53,1.88-3.82,4.8-6.6,4.8h-53.77c27.92-39.61,57.28-78.22,84.75-118.17,3.23-3.65,12.72-10.17,17.58-10.17h112.49c.2,0,.86.8.75,1.21l-44.66,110.96c-2.59,5.92-13.49,16.17-20.01,16.17h-70.61Z"/>
  <path class="st1" d="M-3539.64,897.15c.46.13.93.97.55,1.51-15.4,38.28-31.11,76.44-47.12,114.46-3.75,6.49-10.62,11.84-18.32,12.4l-96.11-.06c-6.26-1.36-9.36-6.19-8.66-12.54,8.48-21.08,16.02-44,25.63-64.56,4.47-9.57,11.35-15.96,22.15-17.5l57.89-.09c.81-.28,1.5-2.23,1.9-3.06,3.31-6.88,8.27-25,13.82-28.79.52-.35,3.35-1.77,3.68-1.77h44.6ZM-3649.27,991.67c.48.51,2.3,1.05,3.08,1.13,2.94.33,9.95.32,12.9-.01,3.39-.38,5.48-1.94,7.04-4.85,3.66-6.82,5.86-16.07,9.36-23.15-.22-1.33-.74-1.61-2-1.76-3.26-.4-12.62-.38-15.9.02-3.52.42-5.37,3.25-6.77,6.12-2.36,4.84-6.16,13.52-7.73,18.53-.4,1.27-1.09,2.8.02,3.97Z"/>
  <path class="st1" d="M-3425.42,1025.49l16.13-39.61c2.77-5.04,11.99-12.91,17.81-12.91h37.91c.11.7-.07,1.32-.24,1.99-1.12,4.25-5.22,10.29-6,14.35-.3,1.57-.2,2.43,1.41,3.11s12.72.63,14.99.38c6.98-.79,8.03-7.41,10.39-12.9,1.3-3.02,5.13-11.17,5.51-13.85.14-.97-.9-2.98-1.53-2.98h-70.61c2-5.76,4.2-12.69,6.84-18.18,3.72-7.73,12.08-13.45,20.64-14.05,30.33-2.12,63.11,1.65,93.7,0,7.43.52,11.39,6.7,9.92,13.92l-27.29,67.35c-1.84,4.57-11.58,13.39-16.34,13.39h-113.23Z"/>
  <path class="st1" d="M-3217.3,1025.49l23.67-58.84c.47-2.61-.07-3.38-2.59-3.62-3-.28-12.59-.41-15.28.14-2.01.41-3.69,2.46-5.05,3.87l-23.58,57.19c-.74.08-2.84,1.26-3.2,1.26h-47.32l35.26-87.39c1.24-2.99,3.81-5.34,6.75-6.63,34.52-1.46,69.33-.19,103.95-.64,9.49,1.28,11.57,8.06,9.02,16.49-7.34,24.31-21.44,49.2-29.52,73.55-.3,1.52-2.84,4.62-4.3,4.62h-47.82Z"/>
  <path class="st1" d="M-3459.61,930.85l.25,1.53-10.56,25.57c-1.15,2.95-4.2,4.77-7.27,5.11-8.14.92-23.53-2.94-28.7,4.01-8.17,18.21-15.21,37.04-22.71,55.58-.16.87-3.12,2.85-3.59,2.85h-47.57c-.06,0-.96-.7-.53-1.01l32.41-78.11c2.6-6.5,13.07-15.52,20.16-15.52h68.14Z"/>
  <path class="st1" d="M-3398.91,930.85c.7.21.95,1.36.52,1.98-12.85,28.8-22.74,60.29-36.21,88.68-.81,1.7-1.6,3.98-3.95,3.98h-47.82l38.9-94.65h48.56Z"/>
  <path class="st3" d="M-3048.94,943.81c1.03-.18,1.42.03,2.29.48,6.97,3.64,1.17,24.49-7.26,22.63-7.77-1.71-2.98-21.76,4.97-23.11Z"/>
  <path class="st3" d="M-2967.17,948.78c11.86-2.27,3.81,27.92-5.52,21.15-5.29-3.83-1.05-19.9,5.52-21.15Z"/>
  <path class="st3" d="M-2911.78,907.04l-159.45.15c-8.44,1.86-15.4,7.77-19.31,15.38l-33.95,86.96c-2.36,8.42.74,15.68,9.99,16.47l66.32.09,19.4,19.74,1.49.5,30.37-20.22c23.01-3.01,51.71,9.45,63.45-17.33,12.06-27.54,20.1-58.56,32.1-86.33,1.65-7.68-2.32-14.71-10.42-15.4ZM-3074.54,992.99c-25.48-18.42-1.08-62.82,26.61-65.97,19.61-2.24,30.51,12.26,28.84,30.83-2.1,23.39-32.82,51.5-55.45,35.15ZM-3006.1,994.98c-.79,2.56-1.87,5.01-3.16,7-1.58,2.45-3.45,4.24-5.42,4.76-4.97,1.3-7.56-.97-8.49-4.76-.58-2.32-.52-5.2-.02-8.17.2-1.2,1.24-2.08,2.46-2.08h12.25c.1,0,.19,0,.29.02,1.53.18,2.55,1.71,2.08,3.23ZM-2941.27,972.73c-6.52,16.4-28.5,31.33-44.62,18.33-20.1-16.22-2.06-52.44,21.7-55.12,21.88-2.47,30.08,18.77,22.92,36.79Z"/>
  <ellipse class="st4" cx="-6007" cy="146.5" rx="124" ry="63.27"/>
  <ellipse class="st2" cx="-5705" cy="146.5" rx="124" ry="63.27"/>
  <ellipse class="st0" cx="-4680" cy="146.5" rx="124" ry="63.27"/>
  <ellipse class="st0" cx="-4791" cy="677.5" rx="124" ry="63.27"/>
  <ellipse class="st1" cx="-5001" cy="146.5" rx="124" ry="63.27"/>
  <ellipse class="st3" cx="-5321" cy="146.5" rx="124" ry="63.27"/>
  <path class="st1" d="M-6012.46,492.01l11.8-31.06c7.29-15.57,21.3-8.96,34.54-10.55,1.62-.2,3.14-1.01,4.2-2.25,6.98-14.51,12.04-30,18.76-44.68.26-.39-.55-1.15-.67-1.15h-24.28c-1.64,0-6.47,2.89-7.68,4.21-19.67,25.54-36.35,55.84-56.58,80.68-1.53,1.88-3.82,4.8-6.6,4.8h-53.77c27.92-39.61,57.28-78.22,84.75-118.17,3.23-3.65,12.72-10.17,17.58-10.17h112.49c.2,0,.86.8.75,1.21l-44.66,110.96c-2.59,5.92-13.49,16.17-20.01,16.17h-70.61Z"/>
  <path class="st1" d="M-5742.64,363.67c.46.13.93.97.55,1.51-15.4,38.28-31.11,76.44-47.12,114.46-3.75,6.49-10.62,11.84-18.32,12.4l-96.11-.06c-6.26-1.36-9.36-6.19-8.66-12.54,8.48-21.08,16.02-44,25.63-64.56,4.47-9.57,11.35-15.96,22.15-17.5l57.89-.09c.81-.28,1.5-2.23,1.9-3.06,3.31-6.88,8.27-25,13.82-28.79.52-.35,3.35-1.77,3.68-1.77h44.6ZM-5852.27,458.19c.48.51,2.3,1.05,3.08,1.13,2.94.33,9.95.32,12.9-.01,3.39-.38,5.48-1.94,7.04-4.85,3.66-6.82,5.86-16.07,9.36-23.15-.22-1.33-.74-1.61-2-1.76-3.26-.4-12.62-.38-15.9.02-3.52.42-5.37,3.25-6.77,6.12-2.36,4.84-6.16,13.52-7.73,18.53-.4,1.27-1.09,2.8.02,3.97Z"/>
  <path class="st1" d="M-5628.42,492.01l16.13-39.61c2.77-5.04,11.99-12.91,17.81-12.91h37.91c.11.7-.07,1.32-.24,1.99-1.12,4.25-5.22,10.29-6,14.35-.3,1.57-.2,2.43,1.41,3.11s12.72.63,14.99.38c6.98-.79,8.03-7.41,10.39-12.9,1.3-3.02,5.13-11.17,5.51-13.85.14-.97-.9-2.98-1.53-2.98h-70.61c2-5.76,4.2-12.69,6.84-18.18,3.72-7.73,12.08-13.45,20.64-14.05,30.33-2.12,63.11,1.65,93.7,0,7.43.52,11.39,6.7,9.92,13.92l-27.29,67.35c-1.84,4.57-11.58,13.39-16.34,13.39h-113.23Z"/>
  <path class="st1" d="M-5420.3,492.01l23.67-58.84c.47-2.61-.07-3.38-2.59-3.62-3-.28-12.59-.41-15.28.14-2.01.41-3.69,2.46-5.05,3.87l-23.58,57.19c-.74.08-2.84,1.26-3.2,1.26h-47.32l35.26-87.39c1.24-2.99,3.81-5.34,6.75-6.63,34.52-1.46,69.33-.19,103.95-.64,9.49,1.28,11.57,8.06,9.02,16.49-7.34,24.31-21.44,49.2-29.52,73.55-.3,1.52-2.84,4.62-4.3,4.62h-47.82Z"/>
  <path class="st1" d="M-5662.61,397.36l.25,1.53-10.56,25.57c-1.15,2.95-4.2,4.77-7.27,5.11-8.14.92-23.53-2.94-28.7,4.01-8.17,18.21-15.21,37.04-22.71,55.58-.16.87-3.12,2.85-3.59,2.85h-47.57c-.06,0-.96-.7-.53-1.01l32.41-78.11c2.6-6.5,13.07-15.52,20.16-15.52h68.14Z"/>
  <path class="st1" d="M-5601.91,397.36c.7.21.95,1.36.52,1.98-12.85,28.8-22.74,60.29-36.21,88.68-.81,1.7-1.6,3.98-3.95,3.98h-47.82l38.9-94.65h48.56Z"/>
  <path class="st1" d="M-5588.53,363.67c.46.13.93.96.55,1.5l-9.35,22.15c-1.08.89-7.52.05-9.56.11-11.8.33-24.35,1.45-36.17.54-.91-.07-3.46-.37-3.96-1,2.62-4.93,5.3-17.17,9.22-20.53.51-.44,4.4-2.77,4.67-2.77h44.6Z"/>
  <path class="st2" d="M-5251.94,410.33c1.03-.18,1.42.03,2.29.48,6.97,3.64,1.17,24.49-7.26,22.63-7.77-1.71-2.98-21.76,4.97-23.11Z"/>
  <path class="st2" d="M-5170.17,415.3c11.86-2.27,3.81,27.92-5.52,21.15-5.29-3.83-1.05-19.9,5.52-21.15Z"/>
  <path class="st2" d="M-5114.78,373.56l-159.45.15c-8.44,1.86-15.4,7.77-19.31,15.38l-33.95,86.96c-2.36,8.42.74,15.68,9.99,16.47l66.32.09,19.4,19.74,1.49.5,30.37-20.22c23.01-3.01,51.71,9.45,63.45-17.33,12.06-27.54,20.1-58.56,32.1-86.33,1.65-7.68-2.32-14.71-10.42-15.4ZM-5277.54,459.51c-25.48-18.42-1.08-62.82,26.61-65.97,19.61-2.24,30.51,12.26,28.84,30.83-2.1,23.39-32.82,51.5-55.45,35.15ZM-5209.1,461.49c-.79,2.56-1.87,5.01-3.16,7-1.58,2.45-3.45,4.24-5.42,4.76-4.97,1.3-7.56-.97-8.49-4.76-.58-2.32-.52-5.2-.02-8.17.2-1.2,1.24-2.08,2.46-2.08h12.25c.1,0,.19,0,.29.02,1.53.18,2.55,1.71,2.08,3.23ZM-5144.27,439.25c-6.52,16.4-28.5,31.33-44.62,18.33-20.1-16.22-2.06-52.44,21.7-55.12,21.88-2.47,30.08,18.77,22.92,36.79Z"/>
  <path class="st1" d="M-6012.46,684.49l11.8-31.06c7.29-15.57,21.3-8.96,34.54-10.55,1.62-.2,3.14-1.01,4.2-2.25,6.98-14.51,12.04-30,18.76-44.68.26-.39-.55-1.15-.67-1.15h-24.28c-1.64,0-6.47,2.89-7.68,4.21-19.67,25.54-36.35,55.84-56.58,80.68-1.53,1.88-3.82,4.8-6.6,4.8h-53.77c27.92-39.61,57.28-78.22,84.75-118.17,3.23-3.65,12.72-10.17,17.58-10.17h112.49c.2,0,.86.8.75,1.21l-44.66,110.96c-2.59,5.92-13.49,16.17-20.01,16.17h-70.61Z"/>
  <path class="st1" d="M-5742.64,556.15c.46.13.93.97.55,1.51-15.4,38.28-31.11,76.44-47.12,114.46-3.75,6.49-10.62,11.84-18.32,12.4l-96.11-.06c-6.26-1.36-9.36-6.19-8.66-12.54,8.48-21.08,16.02-44,25.63-64.56,4.47-9.57,11.35-15.96,22.15-17.5l57.89-.09c.81-.28,1.5-2.23,1.9-3.06,3.31-6.88,8.27-25,13.82-28.79.52-.35,3.35-1.77,3.68-1.77h44.6ZM-5852.27,650.67c.48.51,2.3,1.05,3.08,1.13,2.94.33,9.95.32,12.9-.01,3.39-.38,5.48-1.94,7.04-4.85,3.66-6.82,5.86-16.07,9.36-23.15-.22-1.33-.74-1.61-2-1.76-3.26-.4-12.62-.38-15.9.02-3.52.42-5.37,3.25-6.77,6.12-2.36,4.84-6.16,13.52-7.73,18.53-.4,1.27-1.09,2.8.02,3.97Z"/>
  <path class="st1" d="M-5628.42,684.49l16.13-39.61c2.77-5.04,11.99-12.91,17.81-12.91h37.91c.11.7-.07,1.32-.24,1.99-1.12,4.25-5.22,10.29-6,14.35-.3,1.57-.2,2.43,1.41,3.11s12.72.63,14.99.38c6.98-.79,8.03-7.41,10.39-12.9,1.3-3.02,5.13-11.17,5.51-13.85.14-.97-.9-2.98-1.53-2.98h-70.61c2-5.76,4.2-12.69,6.84-18.18,3.72-7.73,12.08-13.45,20.64-14.05,30.33-2.12,63.11,1.65,93.7,0,7.43.52,11.39,6.7,9.92,13.92l-27.29,67.35c-1.84,4.57-11.58,13.39-16.34,13.39h-113.23Z"/>
  <path class="st1" d="M-5420.3,684.49l23.67-58.84c.47-2.61-.07-3.38-2.59-3.62-3-.28-12.59-.41-15.28.14-2.01.41-3.69,2.46-5.05,3.87l-23.58,57.19c-.74.08-2.84,1.26-3.2,1.26h-47.32l35.26-87.39c1.24-2.99,3.81-5.34,6.75-6.63,34.52-1.46,69.33-.19,103.95-.64,9.49,1.28,11.57,8.06,9.02,16.49-7.34,24.31-21.44,49.2-29.52,73.55-.3,1.52-2.84,4.62-4.3,4.62h-47.82Z"/>
  <path class="st1" d="M-5662.61,589.85l.25,1.53-10.56,25.57c-1.15,2.95-4.2,4.77-7.27,5.11-8.14.92-23.53-2.94-28.7,4.01-8.17,18.21-15.21,37.04-22.71,55.58-.16.87-3.12,2.85-3.59,2.85h-47.57c-.06,0-.96-.7-.53-1.01l32.41-78.11c2.6-6.5,13.07-15.52,20.16-15.52h68.14Z"/>
  <path class="st1" d="M-5601.91,589.85c.7.21.95,1.36.52,1.98-12.85,28.8-22.74,60.29-36.21,88.68-.81,1.7-1.6,3.98-3.95,3.98h-47.82l38.9-94.65h48.56Z"/>
  <path class="st1" d="M-5588.53,556.15c.46.13.93.96.55,1.5l-9.35,22.15c-1.08.89-7.52.05-9.56.11-11.8.33-24.35,1.45-36.17.54-.91-.07-3.46-.37-3.96-1,2.62-4.93,5.3-17.17,9.22-20.53.51-.44,4.4-2.77,4.67-2.77h44.6Z"/>
  <path class="st4" d="M-5251.94,602.81c1.03-.18,1.42.03,2.29.48,6.97,3.64,1.17,24.49-7.26,22.63-7.77-1.71-2.98-21.76,4.97-23.11Z"/>
  <path class="st4" d="M-5170.17,607.78c11.86-2.27,3.81,27.92-5.52,21.15-5.29-3.83-1.05-19.9,5.52-21.15Z"/>
  <path class="st4" d="M-5114.78,566.04l-159.45.15c-8.44,1.86-15.4,7.77-19.31,15.38l-33.95,86.96c-2.36,8.42.74,15.68,9.99,16.47l66.32.09,19.4,19.74,1.49.5,30.37-20.22c23.01-3.01,51.71,9.45,63.45-17.33,12.06-27.54,20.1-58.56,32.1-86.33,1.65-7.68-2.32-14.71-10.42-15.4ZM-5277.54,651.99c-25.48-18.42-1.08-62.82,26.61-65.97,19.61-2.24,30.51,12.26,28.84,30.83-2.1,23.39-32.82,51.5-55.45,35.15ZM-5209.1,653.98c-.79,2.56-1.87,5.01-3.16,7-1.58,2.45-3.45,4.24-5.42,4.76-4.97,1.3-7.56-.97-8.49-4.76-.58-2.32-.52-5.2-.02-8.17.2-1.2,1.24-2.08,2.46-2.08h12.25c.1,0,.19,0,.29.02,1.53.18,2.55,1.71,2.08,3.23ZM-5144.27,631.73c-6.52,16.4-28.5,31.33-44.62,18.33-20.1-16.22-2.06-52.44,21.7-55.12,21.88-2.47,30.08,18.77,22.92,36.79Z"/>
  <path class="st1" d="M-6012.46,859.49l11.8-31.06c7.29-15.57,21.3-8.96,34.54-10.55,1.62-.2,3.14-1.01,4.2-2.25,6.98-14.51,12.04-30,18.76-44.68.26-.39-.55-1.15-.67-1.15h-24.28c-1.64,0-6.47,2.89-7.68,4.21-19.67,25.54-36.35,55.84-56.58,80.68-1.53,1.88-3.82,4.8-6.6,4.8h-53.77c27.92-39.61,57.28-78.22,84.75-118.17,3.23-3.65,12.72-10.17,17.58-10.17h112.49c.2,0,.86.8.75,1.21l-44.66,110.96c-2.59,5.92-13.49,16.17-20.01,16.17h-70.61Z"/>
  <path class="st1" d="M-5742.64,731.15c.46.13.93.97.55,1.51-15.4,38.28-31.11,76.44-47.12,114.46-3.75,6.49-10.62,11.84-18.32,12.4l-96.11-.06c-6.26-1.36-9.36-6.19-8.66-12.54,8.48-21.08,16.02-44,25.63-64.56,4.47-9.57,11.35-15.96,22.15-17.5l57.89-.09c.81-.28,1.5-2.23,1.9-3.06,3.31-6.88,8.27-25,13.82-28.79.52-.35,3.35-1.77,3.68-1.77h44.6ZM-5852.27,825.67c.48.51,2.3,1.05,3.08,1.13,2.94.33,9.95.32,12.9-.01,3.39-.38,5.48-1.94,7.04-4.85,3.66-6.82,5.86-16.07,9.36-23.15-.22-1.33-.74-1.61-2-1.76-3.26-.4-12.62-.38-15.9.02-3.52.42-5.37,3.25-6.77,6.12-2.36,4.84-6.16,13.52-7.73,18.53-.4,1.27-1.09,2.8.02,3.97Z"/>
  <path class="st1" d="M-5628.42,859.49l16.13-39.61c2.77-5.04,11.99-12.91,17.81-12.91h37.91c.11.7-.07,1.32-.24,1.99-1.12,4.25-5.22,10.29-6,14.35-.3,1.57-.2,2.43,1.41,3.11s12.72.63,14.99.38c6.98-.79,8.03-7.41,10.39-12.9,1.3-3.02,5.13-11.17,5.51-13.85.14-.97-.9-2.98-1.53-2.98h-70.61c2-5.76,4.2-12.69,6.84-18.18,3.72-7.73,12.08-13.45,20.64-14.05,30.33-2.12,63.11,1.65,93.7,0,7.43.52,11.39,6.7,9.92,13.92l-27.29,67.35c-1.84,4.57-11.58,13.39-16.34,13.39h-113.23Z"/>
  <path class="st1" d="M-5420.3,859.49l23.67-58.84c.47-2.61-.07-3.38-2.59-3.62-3-.28-12.59-.41-15.28.14-2.01.41-3.69,2.46-5.05,3.87l-23.58,57.19c-.74.08-2.84,1.26-3.2,1.26h-47.32l35.26-87.39c1.24-2.99,3.81-5.34,6.75-6.63,34.52-1.46,69.33-.19,103.95-.64,9.49,1.28,11.57,8.06,9.02,16.49-7.34,24.31-21.44,49.2-29.52,73.55-.3,1.52-2.84,4.62-4.3,4.62h-47.82Z"/>
  <path class="st1" d="M-5662.61,764.85l.25,1.53-10.56,25.57c-1.15,2.95-4.2,4.77-7.27,5.11-8.14.92-23.53-2.94-28.7,4.01-8.17,18.21-15.21,37.04-22.71,55.58-.16.87-3.12,2.85-3.59,2.85h-47.57c-.06,0-.96-.7-.53-1.01l32.41-78.11c2.6-6.5,13.07-15.52,20.16-15.52h68.14Z"/>
  <path class="st1" d="M-5601.91,764.85c.7.21.95,1.36.52,1.98-12.85,28.8-22.74,60.29-36.21,88.68-.81,1.7-1.6,3.98-3.95,3.98h-47.82l38.9-94.65h48.56Z"/>
  <path class="st1" d="M-5251.94,777.81c1.03-.18,1.42.03,2.29.48,6.97,3.64,1.17,24.49-7.26,22.63-7.77-1.71-2.98-21.76,4.97-23.11Z"/>
  <path class="st1" d="M-5170.17,782.78c11.86-2.27,3.81,27.92-5.52,21.15-5.29-3.83-1.05-19.9,5.52-21.15Z"/>
  <path class="st1" d="M-5114.78,741.04l-159.45.15c-8.44,1.86-15.4,7.77-19.31,15.38l-33.95,86.96c-2.36,8.42.74,15.68,9.99,16.47l66.32.09,19.4,19.74,1.49.5,30.37-20.22c23.01-3.01,51.71,9.45,63.45-17.33,12.06-27.54,20.1-58.56,32.1-86.33,1.65-7.68-2.32-14.71-10.42-15.4ZM-5277.54,826.99c-25.48-18.42-1.08-62.82,26.61-65.97,19.61-2.24,30.51,12.26,28.84,30.83-2.1,23.39-32.82,51.5-55.45,35.15ZM-5209.1,828.98c-.79,2.56-1.87,5.01-3.16,7-1.58,2.45-3.45,4.24-5.42,4.76-4.97,1.3-7.56-.97-8.49-4.76-.58-2.32-.52-5.2-.02-8.17.2-1.2,1.24-2.08,2.46-2.08h12.25c.1,0,.19,0,.29.02,1.53.18,2.55,1.71,2.08,3.23ZM-5144.27,806.73c-6.52,16.4-28.5,31.33-44.62,18.33-20.1-16.22-2.06-52.44,21.7-55.12,21.88-2.47,30.08,18.77,22.92,36.79Z"/>
  <path class="st1" d="M-6012.46,1025.49l11.8-31.06c7.29-15.57,21.3-8.96,34.54-10.55,1.62-.2,3.14-1.01,4.2-2.25,6.98-14.51,12.04-30,18.76-44.68.26-.39-.55-1.15-.67-1.15h-24.28c-1.64,0-6.47,2.89-7.68,4.21-19.67,25.54-36.35,55.84-56.58,80.68-1.53,1.88-3.82,4.8-6.6,4.8h-53.77c27.92-39.61,57.28-78.22,84.75-118.17,3.23-3.65,12.72-10.17,17.58-10.17h112.49c.2,0,.86.8.75,1.21l-44.66,110.96c-2.59,5.92-13.49,16.17-20.01,16.17h-70.61Z"/>
  <path class="st1" d="M-5742.64,897.15c.46.13.93.97.55,1.51-15.4,38.28-31.11,76.44-47.12,114.46-3.75,6.49-10.62,11.84-18.32,12.4l-96.11-.06c-6.26-1.36-9.36-6.19-8.66-12.54,8.48-21.08,16.02-44,25.63-64.56,4.47-9.57,11.35-15.96,22.15-17.5l57.89-.09c.81-.28,1.5-2.23,1.9-3.06,3.31-6.88,8.27-25,13.82-28.79.52-.35,3.35-1.77,3.68-1.77h44.6ZM-5852.27,991.67c.48.51,2.3,1.05,3.08,1.13,2.94.33,9.95.32,12.9-.01,3.39-.38,5.48-1.94,7.04-4.85,3.66-6.82,5.86-16.07,9.36-23.15-.22-1.33-.74-1.61-2-1.76-3.26-.4-12.62-.38-15.9.02-3.52.42-5.37,3.25-6.77,6.12-2.36,4.84-6.16,13.52-7.73,18.53-.4,1.27-1.09,2.8.02,3.97Z"/>
  <path class="st1" d="M-5628.42,1025.49l16.13-39.61c2.77-5.04,11.99-12.91,17.81-12.91h37.91c.11.7-.07,1.32-.24,1.99-1.12,4.25-5.22,10.29-6,14.35-.3,1.57-.2,2.43,1.41,3.11s12.72.63,14.99.38c6.98-.79,8.03-7.41,10.39-12.9,1.3-3.02,5.13-11.17,5.51-13.85.14-.97-.9-2.98-1.53-2.98h-70.61c2-5.76,4.2-12.69,6.84-18.18,3.72-7.73,12.08-13.45,20.64-14.05,30.33-2.12,63.11,1.65,93.7,0,7.43.52,11.39,6.7,9.92,13.92l-27.29,67.35c-1.84,4.57-11.58,13.39-16.34,13.39h-113.23Z"/>
  <path class="st1" d="M-5420.3,1025.49l23.67-58.84c.47-2.61-.07-3.38-2.59-3.62-3-.28-12.59-.41-15.28.14-2.01.41-3.69,2.46-5.05,3.87l-23.58,57.19c-.74.08-2.84,1.26-3.2,1.26h-47.32l35.26-87.39c1.24-2.99,3.81-5.34,6.75-6.63,34.52-1.46,69.33-.19,103.95-.64,9.49,1.28,11.57,8.06,9.02,16.49-7.34,24.31-21.44,49.2-29.52,73.55-.3,1.52-2.84,4.62-4.3,4.62h-47.82Z"/>
  <path class="st1" d="M-5662.61,930.85l.25,1.53-10.56,25.57c-1.15,2.95-4.2,4.77-7.27,5.11-8.14.92-23.53-2.94-28.7,4.01-8.17,18.21-15.21,37.04-22.71,55.58-.16.87-3.12,2.85-3.59,2.85h-47.57c-.06,0-.96-.7-.53-1.01l32.41-78.11c2.6-6.5,13.07-15.52,20.16-15.52h68.14Z"/>
  <path class="st1" d="M-5601.91,930.85c.7.21.95,1.36.52,1.98-12.85,28.8-22.74,60.29-36.21,88.68-.81,1.7-1.6,3.98-3.95,3.98h-47.82l38.9-94.65h48.56Z"/>
  <path class="st3" d="M-5251.94,943.81c1.03-.18,1.42.03,2.29.48,6.97,3.64,1.17,24.49-7.26,22.63-7.77-1.71-2.98-21.76,4.97-23.11Z"/>
  <path class="st3" d="M-5170.17,948.78c11.86-2.27,3.81,27.92-5.52,21.15-5.29-3.83-1.05-19.9,5.52-21.15Z"/>
  <path class="st3" d="M-5114.78,907.04l-159.45.15c-8.44,1.86-15.4,7.77-19.31,15.38l-33.95,86.96c-2.36,8.42.74,15.68,9.99,16.47l66.32.09,19.4,19.74,1.49.5,30.37-20.22c23.01-3.01,51.71,9.45,63.45-17.33,12.06-27.54,20.1-58.56,32.1-86.33,1.65-7.68-2.32-14.71-10.42-15.4ZM-5277.54,992.99c-25.48-18.42-1.08-62.82,26.61-65.97,19.61-2.24,30.51,12.26,28.84,30.83-2.1,23.39-32.82,51.5-55.45,35.15ZM-5209.1,994.98c-.79,2.56-1.87,5.01-3.16,7-1.58,2.45-3.45,4.24-5.42,4.76-4.97,1.3-7.56-.97-8.49-4.76-.58-2.32-.52-5.2-.02-8.17.2-1.2,1.24-2.08,2.46-2.08h12.25c.1,0,.19,0,.29.02,1.53.18,2.55,1.71,2.08,3.23ZM-5144.27,972.73c-6.52,16.4-28.5,31.33-44.62,18.33-20.1-16.22-2.06-52.44,21.7-55.12,21.88-2.47,30.08,18.77,22.92,36.79Z"/>
</svg>